<?xml version="1.0" encoding="UTF-8" standalone="no"?>
<!-- Created with Inkscape (http://www.inkscape.org/) -->

<svg
   width="100"
   height="100"
   viewBox="0 0 26.458333 26.458333"
   version="1.1"
   id="svg1"
   inkscape:export-filename="Download.svg"
   inkscape:export-xdpi="96"
   inkscape:export-ydpi="96"
   sodipodi:docname="Delete.svg"
   inkscape:version="1.3 (0e150ed6c4, 2023-07-21)"
   xmlns:inkscape="http://www.inkscape.org/namespaces/inkscape"
   xmlns:sodipodi="http://sodipodi.sourceforge.net/DTD/sodipodi-0.dtd"
   xmlns="http://www.w3.org/2000/svg"
   xmlns:svg="http://www.w3.org/2000/svg">
  <sodipodi:namedview
     id="namedview1"
     pagecolor="#878c84"
     bordercolor="#000000"
     borderopacity="0.15294118"
     inkscape:showpageshadow="2"
     inkscape:pageopacity="0.0"
     inkscape:pagecheckerboard="0"
     inkscape:deskcolor="#d1d1d1"
     inkscape:document-units="px"
     inkscape:zoom="5.6568543"
     inkscape:cx="17.854446"
     inkscape:cy="49.409086"
     inkscape:window-width="1920"
     inkscape:window-height="1017"
     inkscape:window-x="1912"
     inkscape:window-y="-8"
     inkscape:window-maximized="1"
     inkscape:current-layer="layer4"
     inkscape:export-bgcolor="#ffffff00" />
  <defs
     id="defs1">
    <marker
       style="overflow:visible"
       id="Triangle"
       refX="0"
       refY="0"
       orient="31"
       inkscape:stockid="Triangle arrow"
       markerWidth="1.3"
       markerHeight="1.3"
       viewBox="0 0 1 1"
       inkscape:isstock="true"
       inkscape:collect="always"
       preserveAspectRatio="xMidYMid">
      <path
         transform="scale(0.5)"
         style="fill:context-stroke;fill-rule:evenodd;stroke:context-stroke;stroke-width:1pt"
         d="M 5.77,0 -2.88,5 V -5 Z"
         id="path135" />
    </marker>
    <linearGradient
       id="swatch31"
       inkscape:swatch="solid">
      <stop
         style="stop-color:#ffffff;stop-opacity:1;"
         offset="0"
         id="stop31" />
    </linearGradient>
    <inkscape:perspective
       sodipodi:type="inkscape:persp3d"
       inkscape:vp_x="-43.834499 : 22.983754 : 0"
       inkscape:vp_y="-1.4663393e-14 : 40.722837 : 0"
       inkscape:vp_z="44.049642 : 23.038632 : 0"
       inkscape:persp3d-origin="13.064451 : 12.397168 : 1"
       id="perspective1" />
    <inkscape:perspective
       sodipodi:type="inkscape:persp3d"
       inkscape:vp_x="-28.274942 : 14.825408 : 0"
       inkscape:vp_y="-9.4584536e-15 : 26.2678 : 0"
       inkscape:vp_z="28.413718 : 14.860806 : 0"
       inkscape:persp3d-origin="9.4156989 : 13.343674 : 1"
       id="perspective1-6" />
  </defs>
  <g
     inkscape:label="Layer 10"
     inkscape:groupmode="layer"
     id="g9"
     style="display:none">
    <rect
       style="fill:#ffffff;fill-opacity:1;stroke-width:0;stroke-linejoin:round;stroke-miterlimit:5.9;paint-order:markers fill stroke"
       id="rect7"
       width="18.350681"
       x="-20.116116"
       y="11.519126"
       rx="2.4467573"
       height="2.9614341"
       inkscape:transform-center-x="-0.21584811"
       inkscape:transform-center-y="0.37428833"
       transform="rotate(-90)" />
    <rect
       style="fill:#ffffff;fill-opacity:1;stroke-width:0;stroke-linejoin:round;stroke-miterlimit:5.9;paint-order:markers fill stroke"
       id="rect8"
       width="10.605647"
       x="-23.845415"
       y="-2.1469796"
       rx="1.9282994"
       height="4.224124"
       inkscape:transform-center-x="1.7901516"
       inkscape:transform-center-y="4.3852984"
       transform="matrix(-0.59373402,-0.80466137,0.44459248,-0.89573295,0,0)" />
    <rect
       style="fill:#ffffff;fill-opacity:1;stroke-width:0;stroke-linejoin:round;stroke-miterlimit:5.9;paint-order:markers fill stroke"
       id="rect9"
       width="10.605647"
       x="2.3331916"
       y="-25.663952"
       rx="1.9282994"
       height="4.224124"
       inkscape:transform-center-x="-2.2207597"
       inkscape:transform-center-y="4.3853105"
       transform="matrix(0.593734,-0.80466138,-0.4445925,-0.89573294,0,0)" />
    <path
       d="m 22.824963,19.853051 c 0,0.06677 -0.0033,0.132423 -0.0098,0.197404 -0.0066,0.06498 -0.01666,0.128843 -0.02946,0.19172 -0.0128,0.06288 -0.0283,0.125064 -0.04703,0.185518 -0.01872,0.06045 -0.04078,0.119537 -0.06511,0.17725 -0.02433,0.05771 -0.051,0.113811 -0.08061,0.168465 -0.02962,0.05466 -0.06205,0.107887 -0.09664,0.159164 -0.03458,0.05128 -0.07135,0.10073 -0.110588,0.148311 -0.03923,0.04758 -0.08097,0.09337 -0.12454,0.136943 -0.04357,0.04357 -0.08936,0.08479 -0.136942,0.124023 -0.04758,0.03924 -0.09704,0.07652 -0.148312,0.111104 -0.05128,0.03459 -0.103992,0.0665 -0.158646,0.09612 -0.05466,0.02962 -0.111269,0.0568 -0.168982,0.08113 -0.05771,0.02433 -0.116796,0.04587 -0.17725,0.0646 -0.06046,0.01872 -0.122125,0.03474 -0.185002,0.04754 -0.06288,0.0128 -0.126738,0.02238 -0.19172,0.02894 -0.06498,0.0066 -0.131153,0.0098 -0.19792,0.0098 H 5.2492919 c -0.066767,0 -0.1329395,-0.0033 -0.1979207,-0.0098 -0.064981,-0.0066 -0.1288428,-0.01614 -0.1917196,-0.02894 -0.062877,-0.0128 -0.1245474,-0.02882 -0.1850016,-0.04754 -0.060454,-0.01872 -0.1195368,-0.04027 -0.1772502,-0.0646 -0.057713,-0.02433 -0.1143276,-0.05152 -0.1689819,-0.08113 -0.054654,-0.02962 -0.1073697,-0.06153 -0.1586466,-0.09612 -0.051277,-0.03458 -0.1012468,-0.07187 -0.1488282,-0.111104 -0.047581,-0.03924 -0.092858,-0.08046 -0.1364257,-0.124023 -0.043567,-0.04357 -0.085305,-0.08936 -0.1245402,-0.136943 -0.039235,-0.04758 -0.076002,-0.09703 -0.1105876,-0.148311 -0.034585,-0.05128 -0.067018,-0.104509 -0.096635,-0.159164 -0.029616,-0.05465 -0.056286,-0.110751 -0.080615,-0.168465 -0.02433,-0.05771 -0.046388,-0.116796 -0.065112,-0.17725 -0.018725,-0.06045 -0.034224,-0.122641 -0.047026,-0.185518 -0.012801,-0.06288 -0.022896,-0.126739 -0.029456,-0.19172 -0.00656,-0.06498 -0.00982,-0.130637 -0.00982,-0.197404 v 2.198316 c 0,0.06677 0.00326,0.132422 0.00982,0.197404 0.00656,0.06498 0.016654,0.128842 0.029456,0.191719 0.012801,0.06288 0.028301,0.125064 0.047026,0.185518 0.018725,0.06046 0.040783,0.119537 0.065112,0.177251 0.02433,0.05771 0.050999,0.113811 0.080615,0.168465 0.029616,0.05465 0.06205,0.107886 0.096635,0.159163 0.034585,0.05128 0.071352,0.10073 0.1105876,0.148312 0.039235,0.04758 0.080973,0.09338 0.1245402,0.136942 0.043567,0.04357 0.088844,0.08479 0.1364257,0.124024 0.047581,0.03924 0.097551,0.076 0.1488282,0.110587 0.051277,0.03458 0.1039924,0.06702 0.1586466,0.09663 0.054654,0.02962 0.1112686,0.0568 0.1689819,0.08113 0.057713,0.02433 0.116796,0.04587 0.1772502,0.0646 0.060454,0.01872 0.1221248,0.03474 0.1850016,0.04754 0.062877,0.0128 0.1267384,0.02238 0.1917196,0.02894 0.064981,0.0066 0.1311534,0.0098 0.1979207,0.0098 H 20.896399 c 0.06677,0 0.132939,-0.0033 0.19792,-0.0098 0.06498,-0.0066 0.128843,-0.01614 0.19172,-0.02894 0.06288,-0.0128 0.124547,-0.02882 0.185002,-0.04754 0.06045,-0.01872 0.119536,-0.04027 0.17725,-0.0646 0.05771,-0.02433 0.114327,-0.05152 0.168982,-0.08113 0.05465,-0.02962 0.107369,-0.06205 0.158646,-0.09663 0.05128,-0.03459 0.10073,-0.07135 0.148312,-0.110587 0.04758,-0.03924 0.09337,-0.08046 0.136942,-0.124024 0.04357,-0.04357 0.08531,-0.08936 0.12454,-0.136942 0.03924,-0.04758 0.076,-0.09703 0.110588,-0.148312 0.03458,-0.05128 0.06702,-0.104509 0.09664,-0.159163 0.02962,-0.05465 0.05628,-0.110752 0.08061,-0.168465 0.02433,-0.05771 0.04639,-0.116796 0.06511,-0.177251 0.01872,-0.06045 0.03422,-0.122641 0.04703,-0.185518 0.0128,-0.06288 0.0229,-0.126738 0.02946,-0.191719 0.0066,-0.06498 0.0098,-0.130637 0.0098,-0.197404 z"
       style="fill:#ffffff;fill-opacity:1;stroke:#ffffff;stroke-width:0.551656;stroke-linecap:square;stroke-linejoin:round;stroke-miterlimit:5.9;paint-order:markers fill stroke"
       id="path12" />
  </g>
  <g
     inkscape:groupmode="layer"
     id="layer9"
     inkscape:label="Layer 9"
     style="display:none">
    <path
       d="m 3.7257049,13.814117 c -0.053966,0.05414 -0.093787,0.102312 -0.1187376,0.144203 -0.02495,0.04189 -0.042304,0.0901 -0.052519,0.143709 -0.010216,0.05361 -0.013393,0.112891 -0.00969,0.177338 0.00371,0.06445 0.014262,0.133553 0.03108,0.207952 0.016818,0.0744 0.03987,0.153516 0.068987,0.236984 0.029117,0.08347 0.064223,0.171349 0.1048275,0.263001 0.040604,0.09165 0.086941,0.187402 0.1382198,0.286357 0.051279,0.09895 0.1076723,0.201294 0.168815,0.306667 0.061143,0.105372 0.127118,0.213787 0.1973121,0.324694 0.1403881,0.221814 0.2975233,0.453755 0.4692451,0.692406 0.1717217,0.238652 0.3576832,0.483785 0.5542432,0.732205 0.087358,0.110407 0.1838553,0.222508 0.2751931,0.333836 l 4.7368969,-4.352913 c 0.08946,-0.08221 0.179593,-0.161368 0.270108,-0.23762 0.09052,-0.07625 0.18127,-0.149164 0.272227,-0.219276 0.181908,-0.140231 0.364113,-0.267873 0.544269,-0.382238 0.09008,-0.05719 0.179579,-0.111256 0.268329,-0.161656 0.08875,-0.0504 0.176953,-0.09723 0.263783,-0.140637 0.08683,-0.04341 0.17235,-0.08315 0.256664,-0.119361 0.08431,-0.03621 0.167231,-0.06897 0.248442,-0.09776 0.08121,-0.02879 0.160833,-0.05398 0.23834,-0.07515 0.07751,-0.02116 0.152813,-0.03855 0.226021,-0.0519 0.07321,-0.01333 0.144232,-0.0223 0.212561,-0.02759 0.06832,-0.0053 0.134091,-0.0071 0.196937,-0.0041 0.06284,0.003 0.122607,0.01042 0.179384,0.02184 0.05677,0.01143 0.110649,0.02729 0.160751,0.04739 0.0501,0.0201 0.0967,0.04421 0.139546,0.07319 0.04285,0.02898 0.08183,0.06231 0.11682,0.10039 0.03499,0.03808 0.0653,0.08008 0.09053,0.12525 0.02526,0.04514 0.04536,0.0936 0.06116,0.145221 0.0158,0.05162 0.02707,0.106646 0.03366,0.164174 0.0066,0.05753 0.009,0.117715 0.0066,0.180587 -0.0024,0.06287 -0.0097,0.128251 -0.02071,0.195889 -0.01104,0.06763 -0.02596,0.137649 -0.04542,0.209476 -0.01946,0.07183 -0.04314,0.145397 -0.07077,0.22084 -0.02763,0.07544 -0.05944,0.152664 -0.09498,0.231153 -0.03554,0.07849 -0.07518,0.158351 -0.118365,0.239311 -0.04319,0.08096 -0.09001,0.162825 -0.140582,0.245684 -0.05058,0.08286 -0.104676,0.166799 -0.162382,0.250982 -0.05771,0.08418 -0.119138,0.168802 -0.18371,0.25374 -0.129152,0.16987 -0.271705,0.34066 -0.426778,0.510093 -0.07755,0.08471 -0.157826,0.169017 -0.241454,0.252765 -0.08361,0.08376 -0.170095,0.1669 -0.259553,0.249106 l -4.7407021,4.35641 c 0.1256375,0.123109 0.2516608,0.25052 0.3765321,0.367742 0.2309574,0.21681 0.459534,0.422782 0.682853,0.61402 0.2233185,0.191236 0.4411811,0.367373 0.6503648,0.525967 0.1045921,0.0793 0.2070565,0.154182 0.3068971,0.223993 0.099841,0.06981 0.1970602,0.134635 0.2913373,0.194077 0.094278,0.05944 0.1857778,0.113688 0.2736798,0.161877 0.0879,0.04819 0.172509,0.09058 0.253224,0.126635 0.08071,0.03605 0.157606,0.0657 0.230321,0.08873 0.07271,0.02303 0.140686,0.03938 0.20459,0.04851 0.0639,0.0091 0.123241,0.01096 0.177523,0.0053 0.05428,-0.0057 0.103782,-0.01888 0.147626,-0.04021 0.04384,-0.02133 0.0952,-0.05695 0.153705,-0.106151 0.05853,-0.04917 0.12419,-0.112086 0.196246,-0.187401 0.07206,-0.07531 0.150688,-0.162972 0.235283,-0.262534 0.0846,-0.09956 0.175127,-0.210665 0.271161,-0.332704 0.192082,-0.244064 0.405954,-0.531323 0.637362,-0.854494 0.231408,-0.323172 0.480138,-0.682356 0.742299,-1.070231 0.26216,-0.387877 0.538031,-0.804588 0.822367,-1.242768 0.284337,-0.43818 0.577445,-0.898108 0.875381,-1.372192 0.297935,-0.474085 0.600538,-0.962094 0.903496,-1.457683 0.302956,-0.495589 0.606292,-0.99842 0.905695,-1.501113 0.299404,-0.502693 0.594997,-1.005242 0.88227,-1.500639 0.287272,-0.495398 0.56633,-0.983672 0.832895,-1.457374 0.266564,-0.473702 0.520266,-0.9329808 0.757547,-1.3705863 0.23728,-0.4376063 0.457911,-0.8534863 0.657329,-1.2405961 0.19942,-0.3871098 0.377807,-0.7452493 0.530788,-1.0674637 0.152982,-0.3222136 0.280331,-0.6086213 0.378298,-0.8515392 0.04898,-0.12146 0.09082,-0.232283 0.124443,-0.3312177 0.03362,-0.098937 0.05928,-0.185856 0.07647,-0.2604635 0.01719,-0.074613 0.02606,-0.1365847 0.02574,-0.185071 -1.58e-4,-0.024247 -0.0029,-0.045119 -0.0076,-0.062496 -0.0047,-0.017397 -0.01146,-0.031568 -0.02091,-0.041847 -0.0094,-0.010279 -0.02306,-0.018144 -0.03993,-0.024363 -0.01694,-0.00617 -0.03749,-0.010643 -0.06163,-0.012844 -0.04829,-0.00441 -0.110791,-7.947e-4 -0.186582,0.010039 -0.0758,0.010833 -0.164571,0.029068 -0.265985,0.05423 -0.10142,0.025157 -0.215375,0.057501 -0.340533,0.096066 -0.250314,0.077131 -0.546442,0.1798722 -0.880409,0.3051348 -0.333968,0.1252626 -0.705877,0.2728093 -1.108426,0.4388712 -0.402548,0.1660605 -0.835554,0.3508315 -1.291612,0.550361 -0.456102,0.1994809 -0.935141,0.4135448 -1.429636,0.6392094 -0.494495,0.2256647 -1.004565,0.4625502 -1.522425,0.7070193 -0.51786,0.2444691 -1.043547,0.4966264 -1.5697,0.7525681 -0.526153,0.255941 -1.052774,0.5157892 -1.572147,0.7758711 -0.519374,0.2600824 -1.0311658,0.5204506 -1.5286879,0.7773416 -0.4975222,0.256892 -0.9805309,0.510168 -1.4411299,0.756537 -0.4605987,0.246369 -0.8990915,0.486112 -1.307695,0.714627 -0.4086033,0.228515 -0.7874857,0.446065 -1.1290216,0.649395 -0.3415358,0.203329 -0.6458056,0.392215 -0.9052017,0.563027 -0.1296981,0.08541 -0.2480468,0.166238 -0.354384,0.24214 -0.1063372,0.0759 -0.2003477,0.146824 -0.2814399,0.212306 -0.081092,0.06548 -0.1492981,0.125621 -0.2032613,0.179766 z"
       style="fill:#ffffff;stroke:#ffffff;stroke-width:0.551656;stroke-linecap:square;stroke-linejoin:round;stroke-miterlimit:5.9;paint-order:markers fill stroke"
       id="path7"
       sodipodi:nodetypes="cssssssssssscssccsssscccscsssccccscssssscccscssssssssscscsccssssssssssssscscsccscssscsssssssssssc" />
  </g>
  <g
     inkscape:groupmode="layer"
     id="layer8"
     inkscape:label="Layer 8"
     style="display:none">
    <g
       sodipodi:type="inkscape:box3d"
       id="g54"
       style="display:inline;fill:none;stroke:#ffffff;stroke-width:3.77957;stroke-linecap:round;stroke-linejoin:round;stroke-miterlimit:5.9;stroke-dasharray:none;paint-order:markers fill stroke"
       inkscape:perspectiveID="#perspective1"
       inkscape:corner0="0.23946829 : -0.0073399948 : 0 : 1"
       inkscape:corner7="-0.0059144709 : -0.26570084 : 0.246067 : 1"
       inkscape:highlight-color="#a836aa"
       transform="matrix(2.9745035,0,0,1.8659433,-26.298929,-16.764783)">
      <path
         sodipodi:type="inkscape:box3dside"
         id="path49"
         style="display:none;fill:#ffffff;fill-opacity:1;fill-rule:evenodd;stroke:#000000;stroke-width:0.211667;stroke-linejoin:round;stroke-dasharray:none;stroke-opacity:1"
         inkscape:box3dsidetype="11"
         d="m 13.348638,10.692675 3.616143,3.022502 v 5.638535 L 13.348638,16.33121 Z"
         points="16.964781,13.715177 16.964781,19.353712 13.348638,16.33121 13.348638,10.692675 " />
      <path
         sodipodi:type="inkscape:box3dside"
         id="path50"
         style="display:none;fill:#ffffff;fill-opacity:1;fill-rule:evenodd;stroke:#000000;stroke-width:0.211667;stroke-linejoin:round;stroke-dasharray:none;stroke-opacity:1"
         inkscape:box3dsidetype="6"
         d="m 9.7046137,13.730842 0,5.638535 3.6440243,-3.038167 0,-5.638535 z"
         points="9.7046137,19.369377 13.348638,16.33121 13.348638,10.692675 9.7046137,13.730842 " />
      <path
         sodipodi:type="inkscape:box3dside"
         id="path51"
         style="display:none;fill:#ffffff;fill-opacity:1;fill-rule:evenodd;stroke:#000000;stroke-width:0.211667;stroke-linejoin:round;stroke-dasharray:none;stroke-opacity:1"
         inkscape:box3dsidetype="13"
         d="m 9.7046137,19.369377 3.6161433,3.022502 3.644024,-3.038167 -3.616143,-3.022502 z"
         points="13.320757,22.391879 16.964781,19.353712 13.348638,16.33121 9.7046137,19.369377 " />
      <path
         sodipodi:type="inkscape:box3dside"
         id="path52"
         style="fill:#ffffff;fill-opacity:0;fill-rule:evenodd;stroke:#ffffff;stroke-width:0.211667;stroke-linejoin:round;stroke-dasharray:none;stroke-opacity:1"
         inkscape:box3dsidetype="5"
         d="m 9.7046137,13.730842 3.6161433,3.022502 3.644024,-3.038167 -3.616143,-3.022502 z"
         points="13.320757,16.753344 16.964781,13.715177 13.348638,10.692675 9.7046137,13.730842 "
         transform="matrix(1.0056793,0,0,1.0588145,-0.07599175,-0.997354)" />
      <path
         sodipodi:type="inkscape:box3dside"
         id="path53"
         style="fill:#ffffff;fill-opacity:0;fill-rule:evenodd;stroke:#ffffff;stroke-width:0.211667;stroke-linejoin:round;stroke-dasharray:none;stroke-opacity:1"
         inkscape:box3dsidetype="14"
         d="m 13.320757,16.753344 0,5.638535 3.644024,-3.038167 v -5.638535 z"
         points="13.320757,22.391879 16.964781,19.353712 16.964781,13.715177 13.320757,16.753344 "
         transform="matrix(1.0056793,0,0,1.0588145,-0.07599175,-0.997354)" />
      <path
         sodipodi:type="inkscape:box3dside"
         id="path54"
         style="fill:#ffffff;fill-opacity:0;fill-rule:evenodd;stroke:#ffffff;stroke-width:0.211667;stroke-linejoin:round;stroke-dasharray:none;stroke-opacity:1"
         inkscape:box3dsidetype="3"
         d="m 9.7046137,13.730842 3.6161433,3.022502 0,5.638535 -3.6161433,-3.022502 z"
         points="13.320757,16.753344 13.320757,22.391879 9.7046137,19.369377 9.7046137,13.730842 "
         transform="matrix(1.0056793,0,0,1.0588145,-0.07599175,-0.997354)" />
    </g>
    <rect
       style="fill:#ffffff;fill-opacity:1;stroke:#ffffff;stroke-width:0.804397;stroke-linecap:square;stroke-linejoin:round;stroke-miterlimit:5.9;stroke-dasharray:none;stroke-opacity:1;paint-order:markers fill stroke"
       id="rect54"
       width="6.2018194"
       height="0.77624714"
       x="18.086884"
       y="2.8391559"
       rx="2.8074551" />
  </g>
  <g
     inkscape:groupmode="layer"
     id="layer7"
     inkscape:label="Layer 7"
     style="display:none">
    <g
       sodipodi:type="inkscape:box3d"
       id="g34"
       style="display:inline;fill:none;stroke:#ffffff;stroke-width:3.77957;stroke-linecap:round;stroke-linejoin:round;stroke-miterlimit:5.9;stroke-dasharray:none;paint-order:markers fill stroke"
       inkscape:perspectiveID="#perspective1"
       inkscape:corner0="0.23946829 : -0.0073399948 : 0 : 1"
       inkscape:corner7="-0.0059144709 : -0.26570084 : 0.246067 : 1"
       inkscape:highlight-color="#a836aa"
       transform="matrix(2.9745035,0,0,1.8659433,-26.298929,-16.764783)">
      <path
         sodipodi:type="inkscape:box3dside"
         id="path29"
         style="display:none;fill:#ffffff;fill-opacity:1;fill-rule:evenodd;stroke:#000000;stroke-width:0.211667;stroke-linejoin:round;stroke-dasharray:none;stroke-opacity:1"
         inkscape:box3dsidetype="11"
         d="m 13.348638,10.692675 3.616143,3.022502 v 5.638535 L 13.348638,16.33121 Z"
         points="16.964781,13.715177 16.964781,19.353712 13.348638,16.33121 13.348638,10.692675 " />
      <path
         sodipodi:type="inkscape:box3dside"
         id="path30"
         style="display:none;fill:#ffffff;fill-opacity:1;fill-rule:evenodd;stroke:#000000;stroke-width:0.211667;stroke-linejoin:round;stroke-dasharray:none;stroke-opacity:1"
         inkscape:box3dsidetype="6"
         d="m 9.7046137,13.730842 0,5.638535 3.6440243,-3.038167 0,-5.638535 z"
         points="9.7046137,19.369377 13.348638,16.33121 13.348638,10.692675 9.7046137,13.730842 " />
      <path
         sodipodi:type="inkscape:box3dside"
         id="path31"
         style="display:none;fill:#ffffff;fill-opacity:1;fill-rule:evenodd;stroke:#000000;stroke-width:0.211667;stroke-linejoin:round;stroke-dasharray:none;stroke-opacity:1"
         inkscape:box3dsidetype="13"
         d="m 9.7046137,19.369377 3.6161433,3.022502 3.644024,-3.038167 -3.616143,-3.022502 z"
         points="13.320757,22.391879 16.964781,19.353712 13.348638,16.33121 9.7046137,19.369377 " />
      <path
         sodipodi:type="inkscape:box3dside"
         id="path32"
         style="fill:#ffffff;fill-opacity:0;fill-rule:evenodd;stroke:#ffffff;stroke-width:0.211667;stroke-linejoin:round;stroke-dasharray:none;stroke-opacity:1"
         inkscape:box3dsidetype="5"
         d="m 9.7046137,13.730842 3.6161433,3.022502 3.644024,-3.038167 -3.616143,-3.022502 z"
         points="13.320757,16.753344 16.964781,13.715177 13.348638,10.692675 9.7046137,13.730842 "
         transform="matrix(0.44835532,0,0,0.47204418,8.0369036,9.6656681)" />
      <path
         sodipodi:type="inkscape:box3dside"
         id="path33"
         style="fill:#ffffff;fill-opacity:0;fill-rule:evenodd;stroke:#ffffff;stroke-width:0.211667;stroke-linejoin:round;stroke-dasharray:none;stroke-opacity:1"
         inkscape:box3dsidetype="14"
         d="m 13.320757,16.753344 0,5.638535 3.644024,-3.038167 v -5.638535 z"
         points="13.320757,22.391879 16.964781,19.353712 16.964781,13.715177 13.320757,16.753344 "
         transform="matrix(0.44835532,0,0,0.47204418,8.0369036,9.6656681)" />
      <path
         sodipodi:type="inkscape:box3dside"
         id="path34"
         style="fill:#ffffff;fill-opacity:0;fill-rule:evenodd;stroke:#ffffff;stroke-width:0.211667;stroke-linejoin:round;stroke-dasharray:none;stroke-opacity:1"
         inkscape:box3dsidetype="3"
         d="m 9.7046137,13.730842 3.6161433,3.022502 0,5.638535 -3.6161433,-3.022502 z"
         points="13.320757,16.753344 13.320757,22.391879 9.7046137,19.369377 9.7046137,13.730842 "
         transform="matrix(0.44835532,0,0,0.47204418,8.0369036,9.6656681)" />
    </g>
    <rect
       style="fill:#ffffff;fill-opacity:0;stroke:#ffffff;stroke-width:0.551656;stroke-linecap:square;stroke-linejoin:round;stroke-miterlimit:5.9;stroke-dasharray:none;stroke-opacity:1;paint-order:markers fill stroke"
       id="rect36"
       width="13.189753"
       height="18.708868"
       x="8.7959223"
       y="6.0803819"
       rx="2.4348886" />
    <path
       d="m 9.1141716,3.9635823 c -0.08431,0 -0.167544,0.00412 -0.2495967,0.012402 -0.08205,0.00828 -0.162967,0.021043 -0.242362,0.037207 -0.0794,0.016164 -0.157242,0.035784 -0.2335779,0.059428 -0.076336,0.023644 -0.1514003,0.050927 -0.2242757,0.081649 -0.072875,0.030722 -0.1438943,0.064922 -0.2129069,0.1023194 -0.069013,0.037397 -0.1357565,0.078285 -0.2005045,0.1219564 -0.064748,0.043671 -0.127504,0.0905 -0.1875855,0.1400431 -0.060081,0.049543 -0.1175861,0.1015664 -0.1725993,0.1565796 -0.055013,0.055013 -0.1075533,0.1130345 -0.1570963,0.173116 -0.049543,0.060081 -0.095855,0.1223207 -0.1395264,0.1870687 -0.043671,0.064748 -0.084559,0.1320087 -0.1219564,0.2010213 -0.037397,0.069013 -0.071598,0.1400315 -0.1023193,0.2129069 -0.030721,0.072875 -0.058005,0.1474227 -0.081649,0.223759 -0.023644,0.076336 -0.043263,0.1541821 -0.059428,0.2335774 -0.016164,0.079395 -0.028924,0.1603099 -0.037207,0.2423625 -0.00828,0.082053 -0.012402,0.1652892 -0.012402,0.2495972 V 20.237524 c 0,0.08431 0.00412,0.167545 0.012402,0.249597 0.00828,0.08205 0.021043,0.162967 0.037207,0.242363 0.016165,0.0794 0.035784,0.157241 0.059428,0.233577 0.023644,0.07634 0.050927,0.151401 0.081649,0.224276 0.030721,0.07287 0.064922,0.143894 0.1023193,0.212907 0.037397,0.06901 0.078285,0.135756 0.1219564,0.200504 0.043671,0.06475 0.089983,0.127504 0.1395264,0.187586 0.049543,0.06008 0.1020831,0.117586 0.1570963,0.172599 0.055013,0.05501 0.1125178,0.107553 0.1725993,0.157097 0.060081,0.04954 0.1228375,0.09637 0.1875855,0.140043 0.064748,0.04367 0.1314919,0.08404 0.2005045,0.121439 0.069013,0.0374 0.1400315,0.0716 0.2129069,0.10232 0.072875,0.03072 0.1479394,0.058 0.2242757,0.08165 0.076336,0.02364 0.1541819,0.04378 0.2335779,0.05995 0.06349,0.01293 0.128573,0.02154 0.193786,0.02946 -0.002,-0.01653 -0.0061,-0.03246 -0.0078,-0.04909 -0.0083,-0.08205 -0.0124,-0.165289 -0.0124,-0.249597 V 8.5152424 c 0,-0.084308 0.0041,-0.1675446 0.0124,-0.2495972 0.0083,-0.082052 0.02104,-0.1629671 0.03721,-0.2423624 0.01616,-0.079395 0.03578,-0.1572412 0.05943,-0.2335775 0.02364,-0.076336 0.05093,-0.1508836 0.08165,-0.2237589 0.03072,-0.072875 0.06492,-0.1438943 0.10232,-0.2129069 0.0374,-0.069013 0.07828,-0.1362734 0.121956,-0.2010214 0.04367,-0.064748 0.08998,-0.1269871 0.139527,-0.1870686 0.04954,-0.060082 0.102083,-0.1181029 0.1570964,-0.1731161 0.05501,-0.055013 0.112518,-0.1070365 0.172599,-0.1565796 0.06008,-0.049543 0.122838,-0.096372 0.187586,-0.1400431 0.06475,-0.043671 0.131492,-0.084559 0.2005037,-0.1219564 0.06901,-0.037397 0.140032,-0.071598 0.212907,-0.1023193 0.07288,-0.030721 0.147939,-0.058005 0.224276,-0.081649 0.07634,-0.023644 0.154182,-0.043264 0.233577,-0.059428 0.0794,-0.016164 0.16031,-0.028924 0.242363,-0.037207 0.08205,-0.00828 0.165289,-0.012402 0.249597,-0.012402 h 8.319905 c 0.08431,0 0.167545,0.00412 0.249598,0.012402 0.01646,0.00166 0.03222,0.00577 0.04857,0.00775 C 19.84097,6.035209 19.83234,5.9700823 19.81942,5.9066143 19.80325,5.8272193 19.78364,5.7493732 19.75999,5.6730369 19.73635,5.5967009 19.70906,5.5221533 19.67834,5.4492779 19.64766,5.3764039 19.61346,5.3053854 19.576066,5.2363728 19.538666,5.1673598 19.497776,5.1000995 19.454109,5.0353515 19.410439,4.9706035 19.364129,4.9083643 19.314582,4.8482828 19.265042,4.7882018 19.212499,4.73018 19.157486,4.6751668 c -0.05501,-0.055013 -0.112518,-0.1070366 -0.1726,-0.1565796 -0.06008,-0.049543 -0.122837,-0.096372 -0.187585,-0.1400431 -0.06475,-0.043671 -0.131492,-0.084559 -0.200505,-0.1219564 -0.06901,-0.037397 -0.140031,-0.071598 -0.212906,-0.1023194 -0.07288,-0.030721 -0.14794,-0.058005 -0.224276,-0.081649 -0.07634,-0.023644 -0.154182,-0.043264 -0.233578,-0.059428 -0.07939,-0.016164 -0.16031,-0.028924 -0.242362,-0.037207 -0.08205,-0.00828 -0.165289,-0.012402 -0.249597,-0.012402 z"
       style="fill:#ffffff;fill-opacity:0;stroke:#ffffff;stroke-width:0.551656;stroke-linecap:square;stroke-linejoin:round;stroke-miterlimit:5.9;paint-order:markers fill stroke"
       id="path43" />
    <path
       d="m 6.9975055,1.8469157 c -0.084308,0 -0.1675446,0.00412 -0.2495972,0.012402 -0.082052,0.00828 -0.1629671,0.021043 -0.2423624,0.037207 -0.079395,0.016164 -0.1572412,0.035784 -0.2335775,0.059428 -0.076336,0.023644 -0.1514003,0.050927 -0.2242757,0.081649 C 5.9748177,2.0683227 5.9037984,2.1025237 5.8347858,2.139921 5.7657728,2.177318 5.6990292,2.218206 5.6342812,2.2618774 5.5695332,2.3055484 5.5067773,2.3523774 5.4466958,2.4019205 5.3866138,2.4514635 5.3291097,2.5034869 5.2740965,2.5585001 5.2190835,2.6135131 5.1665432,2.6715346 5.1170001,2.7316162 5.0674571,2.7916972 5.0211451,2.8539369 4.9774738,2.9186849 4.9338028,2.9834329 4.8929148,3.0506936 4.8555174,3.1197062 4.8181204,3.1887192 4.7839194,3.2597377 4.7531981,3.3326131 4.7224761,3.4054881 4.6951931,3.4800357 4.6715491,3.556372 4.6479051,3.632708 4.6282851,3.7105541 4.6121211,3.7899495 4.5959571,3.8693445 4.5831971,3.9502594 4.5749141,4.032312 4.5666341,4.114364 4.5625121,4.1976012 4.5625121,4.2819091 V 18.120858 c 0,0.08431 0.00412,0.167544 0.012402,0.249597 0.00828,0.08205 0.021043,0.162967 0.037207,0.242362 0.016164,0.0794 0.035784,0.157241 0.059428,0.233578 0.023644,0.07634 0.050927,0.1514 0.081649,0.224275 0.030721,0.07288 0.064922,0.143895 0.1023193,0.212907 0.037397,0.06901 0.078285,0.135757 0.1219564,0.200505 0.043671,0.06475 0.089983,0.127504 0.1395263,0.187585 0.049543,0.06008 0.1020832,0.117586 0.1570964,0.1726 0.055013,0.05501 0.1125177,0.107553 0.1725993,0.157096 0.060081,0.04954 0.1228374,0.09637 0.1875854,0.140043 0.064748,0.04367 0.131492,0.08404 0.2005046,0.12144 0.069013,0.0374 0.1400315,0.0716 0.2129069,0.102319 0.072875,0.03072 0.1479394,0.058 0.2242757,0.08165 0.076336,0.02364 0.1541821,0.04378 0.2335775,0.05994 0.063488,0.01293 0.1285735,0.02154 0.1937866,0.02946 -0.00204,-0.01654 -0.00607,-0.03246 -0.00775,-0.04909 -0.00828,-0.08205 -0.012402,-0.165287 -0.012402,-0.249597 V 6.3985758 c 0,-0.084308 0.00412,-0.1675447 0.012402,-0.2495972 0.00828,-0.082053 0.021043,-0.1629671 0.037207,-0.2423625 0.016165,-0.079395 0.035784,-0.1572412 0.059428,-0.2335774 0.023644,-0.076336 0.050927,-0.1508837 0.081649,-0.223759 0.03072,-0.072875 0.06492,-0.1438944 0.1023175,-0.2129069 C 7.009581,5.1673608 7.050469,5.1000994 7.0941404,5.0353515 7.1378114,4.9706035 7.1841234,4.9083643 7.2336668,4.8482828 7.2832098,4.7882018 7.33575,4.7301799 7.3907631,4.6751668 7.4457761,4.6201538 7.503281,4.5681301 7.5633624,4.5185872 c 0.060082,-0.049543 0.1228375,-0.096372 0.1875855,-0.1400431 0.064748,-0.043671 0.131492,-0.084559 0.2005045,-0.1219564 0.069013,-0.037397 0.1400316,-0.071598 0.2129069,-0.1023194 0.072875,-0.030722 0.1479398,-0.058005 0.2242757,-0.081649 0.076336,-0.023644 0.1541779,-0.043264 0.2335779,-0.059428 0.07939,-0.016164 0.160312,-0.028927 0.242362,-0.037207 0.08205,-0.00828 0.1652867,-0.012402 0.2495967,-0.012402 h 8.3199054 c 0.08431,0 0.167547,0.00412 0.249597,0.012402 0.01646,0.00166 0.03221,0.00574 0.04858,0.00775 -0.0079,-0.065192 -0.01653,-0.1303186 -0.02946,-0.1937866 -0.01616,-0.079395 -0.03578,-0.1572412 -0.05943,-0.2335775 -0.02364,-0.076336 -0.05093,-0.1508835 -0.08165,-0.2237589 -0.03072,-0.072875 -0.06492,-0.1438943 -0.10232,-0.2129069 -0.0374,-0.069013 -0.07829,-0.1362733 -0.121956,-0.2010213 -0.04367,-0.064748 -0.08998,-0.1269872 -0.139527,-0.1870687 -0.04954,-0.060082 -0.102083,-0.1181029 -0.157096,-0.1731161 -0.05501,-0.055013 -0.112518,-0.1070365 -0.172599,-0.1565796 -0.06008,-0.049543 -0.122838,-0.096372 -0.187586,-0.1400431 -0.06475,-0.043671 -0.131492,-0.084559 -0.200504,-0.1219564 -0.06901,-0.037397 -0.140032,-0.071598 -0.212907,-0.1023193 -0.07287,-0.030721 -0.14794,-0.058005 -0.224276,-0.081649 -0.07634,-0.023644 -0.154182,-0.043263 -0.233577,-0.059428 -0.0794,-0.016164 -0.16031,-0.028924 -0.242363,-0.037207 -0.08205,-0.00828 -0.165289,-0.012402 -0.249597,-0.012402 z"
       style="fill:#ffffff;fill-opacity:0;stroke:#ffffff;stroke-width:0.551656;stroke-linecap:square;stroke-linejoin:round;stroke-miterlimit:5.9;paint-order:markers fill stroke"
       id="path45" />
  </g>
  <g
     inkscape:groupmode="layer"
     id="layer6"
     inkscape:label="Layer 6"
     style="display:none">
    <path
       d="m 19.894393,4.0912231 c -0.04008,0.00308 -0.08151,0.00891 -0.124541,0.018087 -0.04303,0.00918 -0.08746,0.021623 -0.133325,0.03669 -0.09173,0.030135 -0.189141,0.071587 -0.291455,0.1240234 -0.102314,0.052436 -0.20951,0.115549 -0.321427,0.188619 -0.111918,0.07307 -0.228794,0.15601 -0.349333,0.2480469 -0.120539,0.092037 -0.244926,0.1934872 -0.373104,0.3028239 C 18.17303,5.11885 18.041236,5.2364605 17.9064,5.3614298 17.771565,5.486399 17.633499,5.6188533 17.492989,5.757788 17.352478,5.8967227 17.209795,6.0421874 17.064591,6.1934203 16.774184,6.4958861 16.47491,6.8212145 16.171623,7.1628702 c -0.303288,0.3416557 -0.611012,0.69961 -0.919324,1.0671183 -0.308313,0.3675083 -0.616944,0.7444557 -0.922425,1.1244792 -0.30548,0.3800234 -0.607478,0.7628473 -0.90227,1.1420493 -0.294792,0.379201 -0.582614,0.754786 -0.858862,1.119828 -0.253021,0.334349 -0.451496,0.609639 -0.682646,0.921391 0.04076,0.01766 0.08113,0.03159 0.121956,0.05013 0.157137,0.07135 0.314333,0.149294 0.470773,0.23151 0.15644,0.08222 0.312062,0.168766 0.465088,0.258383 0.153025,0.08962 0.303724,0.182407 0.450618,0.275952 0.146894,0.09354 0.289837,0.188152 0.427881,0.282153 0.09801,0.06674 0.189772,0.131927 0.282153,0.197404 0.156531,-0.176243 0.285981,-0.31555 0.448035,-0.500228 0.301324,-0.343391 0.610766,-0.700398 0.922424,-1.065051 0.311658,-0.364654 0.625781,-0.736955 0.936377,-1.112594 0.310596,-0.375638 0.617569,-0.754333 0.915707,-1.13068 C 17.625246,9.6483644 17.91427,9.274244 18.188554,8.9074665 18.462837,8.5406891 18.7226,8.1810783 18.961633,7.834147 19.08115,7.6606814 19.195164,7.490161 19.303731,7.3235839 c 0.108567,-0.1665771 0.211281,-0.3289047 0.307475,-0.4873088 0.09619,-0.158404 0.185805,-0.3125242 0.2682,-0.4614705 0.0824,-0.1489462 0.157621,-0.2927776 0.224793,-0.4309814 0.06717,-0.1382039 0.126725,-0.2706982 0.17725,-0.396875 0.05053,-0.1261768 0.09209,-0.2462861 0.12454,-0.3591512 0.03245,-0.1128652 0.05577,-0.2185077 0.06873,-0.3167766 0.0065,-0.049134 0.01003,-0.096349 0.01137,-0.1415934 0.0013,-0.045244 3.65e-4,-0.088514 -0.0036,-0.1297078 -0.004,-0.041194 -0.01067,-0.080323 -0.02015,-0.1173055 -0.0095,-0.036983 -0.02205,-0.071775 -0.03721,-0.1043864 -0.01516,-0.032611 -0.03273,-0.063388 -0.05374,-0.091467 -0.02101,-0.028079 -0.04531,-0.053612 -0.07235,-0.076998 -0.02704,-0.023386 -0.05582,-0.043489 -0.0863,-0.059945 -0.03048,-0.016456 -0.06283,-0.029539 -0.09663,-0.039274 -0.03381,-0.00973 -0.06893,-0.015899 -0.105937,-0.01912 -0.03701,-0.00322 -0.07568,-0.00308 -0.115755,0 z"
       style="fill:#ffffff;stroke-width:0.336021;stroke-linecap:square;stroke-linejoin:round;stroke-miterlimit:5.9;paint-order:markers fill stroke"
       id="path28" />
    <path
       d="m 13.724227,14.258044 c -0.05212,-0.04217 -0.100803,-0.08378 -0.15658,-0.126607 -0.106882,-0.08206 -0.220997,-0.165319 -0.341581,-0.248564 -0.120584,-0.08324 -0.247753,-0.166758 -0.382406,-0.249597 -0.134652,-0.08284 -0.276727,-0.165133 -0.425813,-0.24598 -0.149087,-0.08085 -0.305337,-0.159928 -0.469222,-0.237194 -0.124351,-0.05863 -0.257102,-0.11477 -0.390158,-0.170533 -0.153818,0.209259 -0.341592,0.45724 -0.48059,0.64854 -0.37167,0.511518 -0.65233,0.906649 -0.890385,1.242818 0.04286,0.0318 0.08601,0.05994 0.128674,0.09302 0.136385,0.105742 0.271433,0.217673 0.404627,0.33383 0.133193,0.116157 0.264579,0.236585 0.39274,0.359151 0.128162,0.122567 0.253367,0.2471 0.374655,0.372071 0.108839,0.112145 0.213328,0.224359 0.315226,0.33538 0.284859,-0.304203 0.638333,-0.683649 1.083138,-1.170988 0.247839,-0.27154 0.556371,-0.62155 0.837675,-0.935344 z"
       style="fill:#ffffff;stroke-width:0.336021;stroke-linecap:square;stroke-linejoin:round;stroke-miterlimit:5.9;paint-order:markers fill stroke"
       id="path27" />
    <path
       d="m 11.425659,16.766418 c -0.07114,-0.08586 -0.1434,-0.172336 -0.223242,-0.260966 -0.09807,-0.108867 -0.202857,-0.21952 -0.31471,-0.331246 -0.111853,-0.111725 -0.230728,-0.22484 -0.357084,-0.337964 -0.126356,-0.113123 -0.260461,-0.226452 -0.402042,-0.339514 -0.07912,-0.06318 -0.1665803,-0.125811 -0.2506311,-0.188619 -0.084158,0.120494 -0.2196248,0.313676 -0.2196248,0.313676 0,0 -0.030201,-0.03955 -0.088884,-0.09973 -0.029341,-0.03009 -0.065845,-0.06528 -0.1090373,-0.103353 -0.043192,-0.03808 -0.093366,-0.07906 -0.1498616,-0.120406 -0.056496,-0.04135 -0.1193655,-0.08307 -0.188619,-0.12299 -0.069253,-0.03992 -0.1448784,-0.07785 -0.2263428,-0.111621 -0.081464,-0.03377 -0.1688707,-0.06338 -0.2619995,-0.0863 -0.093129,-0.02292 -0.1918594,-0.03915 -0.2961059,-0.04651 -0.052123,-0.0037 -0.1053967,-0.0052 -0.160197,-0.0041 -0.0548,0.0011 -0.1110563,0.0049 -0.1684651,0.01137 -0.057409,0.0065 -0.1162675,0.0155 -0.1762167,0.02791 -0.059949,0.01241 -0.1210301,0.02808 -0.1834513,0.04703 -0.062421,0.01895 -0.1258612,0.0411 -0.190686,0.06718 -0.064825,0.02608 -0.1307606,0.05612 -0.1979208,0.08992 -0.06716,0.03379 -0.1357282,0.07159 -0.2051554,0.113688 -0.069427,0.0421 -0.1397307,0.08853 -0.2113566,0.139527 -0.071626,0.05099 -0.1443182,0.10644 -0.2180745,0.166915 -0.073756,0.06048 -0.1489742,0.125824 -0.2247925,0.19637 -0.075818,0.07055 -0.1526648,0.14617 -0.2304769,0.227376 -0.077812,0.08121 -0.1564238,0.167995 -0.2361613,0.26045 -0.079738,0.09246 -0.1602511,0.19078 -0.2418457,0.295072 -0.081595,0.104292 -0.1641467,0.214528 -0.2475301,0.331246 -0.083383,0.116718 -0.167594,0.239754 -0.2526977,0.369486 -0.085104,0.129733 -0.1711095,0.266459 -0.2578654,0.409795 -0.1512786,0.249938 -0.2965921,0.482335 -0.4356324,0.699182 -0.1390403,0.216846 -0.2717689,0.418014 -0.398942,0.604097 -0.1271731,0.186084 -0.2486418,0.357564 -0.3643189,0.515214 -0.115677,0.157651 -0.2256602,0.301502 -0.3302124,0.433049 -0.044328,0.05577 -0.083714,0.100549 -0.1260904,0.151928 0.1139938,-0.02362 0.2294823,-0.04821 0.3343465,-0.06563 0.1505592,-0.02501 0.291575,-0.04393 0.4242635,-0.05736 0.1326885,-0.01343 0.2571669,-0.02154 0.3731038,-0.0248 0.1159369,-0.0033 0.223707,-0.0019 0.3240112,0.0036 0.1003043,0.0055 0.1927452,0.01509 0.278536,0.02791 0.085791,0.01281 0.1647985,0.02882 0.2371948,0.04754 0.072396,0.01873 0.1383166,0.04034 0.1984375,0.06356 0.060121,0.02323 0.114333,0.0481 0.1632975,0.07441 0.048965,0.02631 0.092848,0.05419 0.1317749,0.08217 0.038927,0.02798 0.072827,0.056 0.1028361,0.08423 0.030009,0.02823 0.055822,0.05665 0.078032,0.08372 0.02221,0.02706 0.040797,0.05303 0.056327,0.07751 0.03106,0.04897 0.049925,0.09129 0.060978,0.12144 0.011054,0.03015 0.014469,0.04806 0.014469,0.04806 0,0 0.00886,0.0258 0.027905,0.06718 0.019047,0.04138 0.048292,0.09853 0.0894,0.161748 0.020554,0.03161 0.044162,0.06478 0.070797,0.09819 0.026635,0.0334 0.056308,0.06699 0.0894,0.09973 0.033092,0.03275 0.069628,0.0644 0.109554,0.09405 0.039926,0.02965 0.083087,0.05701 0.1302246,0.08113 0.047138,0.02412 0.098237,0.04484 0.1529623,0.06098 0.054725,0.01614 0.1130097,0.02788 0.1756998,0.03359 0.06269,0.0057 0.1294729,0.0056 0.2005046,-0.0015 0.071032,-0.0072 0.1465926,-0.02145 0.2263428,-0.04393 0.07975,-0.02247 0.1638524,-0.0533 0.2526977,-0.09353 0.088845,-0.04023 0.1822857,-0.08995 0.280603,-0.150379 0.098317,-0.06043 0.2013756,-0.131384 0.3095419,-0.214457 0.1081662,-0.08307 0.221639,-0.178127 0.3400309,-0.286287 0.059196,-0.05408 0.1189843,-0.104376 0.1793172,-0.151412 0.060333,-0.04704 0.1211407,-0.09092 0.1824178,-0.131258 0.061277,-0.04034 0.122973,-0.07712 0.1850016,-0.111105 0.062029,-0.03398 0.1244813,-0.06504 0.1870687,-0.09302 0.062587,-0.02798 0.1251487,-0.05313 0.1881022,-0.07545 0.062954,-0.02231 0.1260088,-0.04191 0.1891358,-0.05891 0.1262539,-0.03399 0.2529968,-0.05755 0.3787884,-0.07235 0.125792,-0.0148 0.250867,-0.02075 0.374654,-0.01912 0.123788,0.0016 0.246144,0.01105 0.366386,0.02635 0.120242,0.0153 0.238312,0.03632 0.353467,0.06253 0.115155,0.02621 0.227371,0.05712 0.335897,0.09147 0.0059,0.0019 0.01116,0.0043 0.01705,0.0062 0.02004,-0.03137 0.04244,-0.06239 0.06046,-0.09405 0.03682,-0.0647 0.06936,-0.129746 0.09819,-0.195337 0.02883,-0.06559 0.05347,-0.131317 0.07493,-0.197404 0.02146,-0.06609 0.03955,-0.132251 0.05426,-0.198438 0.01471,-0.06619 0.02655,-0.132549 0.03514,-0.198437 0.0086,-0.06589 0.01396,-0.131696 0.01705,-0.196888 0.0062,-0.130383 0.0022,-0.258741 -0.0098,-0.383955 -0.01206,-0.125215 -0.03205,-0.246937 -0.05736,-0.363802 -0.02531,-0.116866 -0.05635,-0.22901 -0.08992,-0.334347 -0.03357,-0.105337 -0.06961,-0.203927 -0.106454,-0.294556 -0.03684,-0.09063 -0.07443,-0.173239 -0.109554,-0.245979 -0.03512,-0.07274 -0.06771,-0.135912 -0.09612,-0.187586 -0.05681,-0.103347 -0.0956,-0.16123 -0.0956,-0.16123 0,0 0.140402,-0.148638 0.200505,-0.211874 z"
       style="fill:#ffffff;stroke-width:0.336021;stroke-linecap:square;stroke-linejoin:round;stroke-miterlimit:5.9;paint-order:markers fill stroke"
       id="path26" />
  </g>
  <g
     inkscape:groupmode="layer"
     id="layer5"
     inkscape:label="Layer 5"
     style="display:none">
    <path
       d="M 12.940812,7.9374999 A 11.295478,5.8932929 0 0 0 11.466483,7.9881428 11.295478,5.8932929 0 0 0 10.017476,8.1385212 11.295478,5.8932929 0 0 0 8.6180785,8.3860513 11.295478,5.8932929 0 0 0 7.2930948,8.7271158 11.295478,5.8932929 0 0 0 6.064746,9.1555134 11.295478,5.8932929 0 0 0 4.9537027,9.6634927 11.295478,5.8932929 0 0 0 3.979602,10.243302 11.295478,5.8932929 0 0 0 3.1584635,10.88409 11.295478,5.8932929 0 0 0 2.5052734,11.575521 11.295478,5.8932929 0 0 0 2.030367,12.305709 a 11.295478,5.8932929 0 0 0 -0.1782837,0.467155 11.295478,5.8932929 0 0 0 0.1782837,0.466638 11.295478,5.8932929 0 0 0 0.4749064,0.729671 11.295478,5.8932929 0 0 0 0.6531901,0.691431 11.295478,5.8932929 0 0 0 0.3906738,0.327628 11.295478,5.8932929 0 0 0 0.4304647,0.313676 11.295478,5.8932929 0 0 0 0.9741007,0.579293 11.295478,5.8932929 0 0 0 1.1110433,0.508496 11.295478,5.8932929 0 0 0 1.2283488,0.428398 11.295478,5.8932929 0 0 0 1.3249837,0.340547 11.295478,5.8932929 0 0 0 1.3993975,0.248047 11.295478,5.8932929 0 0 0 1.449007,0.150379 11.295478,5.8932929 0 0 0 1.474329,0.05013 11.295478,5.8932929 0 0 0 1.474329,-0.05013 11.295478,5.8932929 0 0 0 1.449007,-0.150379 11.295478,5.8932929 0 0 0 1.399398,-0.248047 11.295478,5.8932929 0 0 0 1.324983,-0.340547 11.295478,5.8932929 0 0 0 1.228349,-0.428398 11.295478,5.8932929 0 0 0 1.111043,-0.508496 11.295478,5.8932929 0 0 0 0.974101,-0.579293 11.295478,5.8932929 0 0 0 0.430465,-0.313676 11.295478,5.8932929 0 0 0 0.390674,-0.327628 11.295478,5.8932929 0 0 0 0.65319,-0.691431 11.295478,5.8932929 0 0 0 0.474906,-0.729671 11.295478,5.8932929 0 0 0 0.189653,-0.496611 11.295478,5.8932929 0 0 0 -0.08785,-0.223242 11.295478,5.8932929 0 0 0 -0.124024,-0.256832 11.295478,5.8932929 0 0 0 -0.145727,-0.253214 11.295478,5.8932929 0 0 0 -0.167432,-0.249597 11.295478,5.8932929 0 0 0 -0.188619,-0.245464 11.295478,5.8932929 0 0 0 -0.209806,-0.240812 11.295478,5.8932929 0 0 0 -0.22996,-0.235644 11.295478,5.8932929 0 0 0 -0.250114,-0.22996 A 11.295478,5.8932929 0 0 0 22.367627,10.584367 11.295478,5.8932929 0 0 0 22.078755,10.366809 11.295478,5.8932929 0 0 0 21.771797,10.156486 11.295478,5.8932929 0 0 0 21.447269,9.9533975 11.295478,5.8932929 0 0 0 21.105171,9.7580606 11.295478,5.8932929 0 0 0 20.746537,9.5709919 11.295478,5.8932929 0 0 0 20.3724,9.3927082 11.295478,5.8932929 0 0 0 19.983276,9.2232095 11.295478,5.8932929 0 0 0 19.5802,9.0630126 11.295478,5.8932929 0 0 0 19.163171,8.9126342 11.295478,5.8932929 0 0 0 18.734257,8.7715575 11.295478,5.8932929 0 0 0 18.293457,8.6413329 11.295478,5.8932929 0 0 0 17.841805,8.5209268 11.295478,5.8932929 0 0 0 17.380334,8.4118895 11.295478,5.8932929 0 0 0 16.909562,8.3131876 11.295478,5.8932929 0 0 0 16.431038,8.2258544 11.295478,5.8932929 0 0 0 15.945797,8.14989 11.295478,5.8932929 0 0 0 15.454354,8.0852945 11.295478,5.8932929 0 0 0 14.957743,8.0320678 11.295478,5.8932929 0 0 0 14.456999,7.9907266 11.295478,5.8932929 0 0 0 13.953153,7.9612711 11.295478,5.8932929 0 0 0 13.447758,7.9431843 11.295478,5.8932929 0 0 0 12.940812,7.9374999 Z m -0.242879,1.3229166 a 3.4377544,3.4377544 0 0 1 0.269751,0.010852 3.4377544,3.4377544 0 0 1 0.2682,0.031523 3.4377544,3.4377544 0 0 1 0.264584,0.05271 3.4377544,3.4377544 0 0 1 0.259932,0.07338 3.4377544,3.4377544 0 0 1 0.253215,0.093018 3.4377544,3.4377544 0 0 1 0.245463,0.1131714 3.4377544,3.4377544 0 0 1 0.235128,0.1317749 3.4377544,3.4377544 0 0 1 0.224792,0.1503784 3.4377544,3.4377544 0 0 1 0.211873,0.1669148 3.4377544,3.4377544 0 0 1 0.197921,0.182934 3.4377544,3.4377544 0 0 1 0.183451,0.198438 3.4377544,3.4377544 0 0 1 0.166915,0.211873 3.4377544,3.4377544 0 0 1 0.150379,0.224793 3.4377544,3.4377544 0 0 1 0.131775,0.235128 3.4377544,3.4377544 0 0 1 0.113171,0.245463 3.4377544,3.4377544 0 0 1 0.09302,0.253214 3.4377544,3.4377544 0 0 1 0.07338,0.259416 3.4377544,3.4377544 0 0 1 0.05271,0.2651 3.4377544,3.4377544 0 0 1 0.03152,0.268201 3.4377544,3.4377544 0 0 1 0.01085,0.269234 3.4377544,3.4377544 0 0 1 -0.0863,0.765328 3.4377544,3.4377544 0 0 1 -0.254248,0.72657 3.4377544,3.4377544 0 0 1 -0.409277,0.65164 3.4377544,3.4377544 0 0 1 -0.54467,0.54467 3.4377544,3.4377544 0 0 1 -0.65164,0.409277 3.4377544,3.4377544 0 0 1 -0.72657,0.254248 3.4377544,3.4377544 0 0 1 -0.765328,0.0863 3.4377544,3.4377544 0 0 1 -0.764811,-0.0863 3.4377544,3.4377544 0 0 1 -0.726571,-0.254248 3.4377544,3.4377544 0 0 1 -0.65164,-0.409277 3.4377544,3.4377544 0 0 1 -0.544669,-0.54467 3.4377544,3.4377544 0 0 1 -0.4092778,-0.65164 3.4377544,3.4377544 0 0 1 -0.254248,-0.72657 3.4377544,3.4377544 0 0 1 -0.0863,-0.765328 3.4377544,3.4377544 0 0 1 0.0863,-0.764811 3.4377544,3.4377544 0 0 1 0.254248,-0.726571 3.4377544,3.4377544 0 0 1 0.4092778,-0.65164 3.4377544,3.4377544 0 0 1 0.544669,-0.544669 3.4377544,3.4377544 0 0 1 0.65164,-0.4092776 3.4377544,3.4377544 0 0 1 0.726571,-0.254248 3.4377544,3.4377544 0 0 1 0.764811,-0.0863 z"
       style="fill:#ffffff;fill-opacity:1;stroke-width:0.336021;stroke-linecap:square;stroke-linejoin:round;stroke-miterlimit:5.9;paint-order:markers fill stroke"
       id="path10" />
    <path
       d="m 12.697933,10.663432 a 2.0345893,2.0345893 0 0 0 -0.526583,0.06925 2.0345893,2.0345893 0 0 0 -0.490409,0.203605 2.0345893,2.0345893 0 0 0 -0.42168,0.322978 2.0345893,2.0345893 0 0 0 -0.322978,0.42168 2.0345893,2.0345893 0 0 0 -0.203605,0.490409 2.0345893,2.0345893 0 0 0 -0.06925,0.526583 2.0345893,2.0345893 0 0 0 0.06925,0.526583 2.0345893,2.0345893 0 0 0 0.203605,0.490926 2.0345893,2.0345893 0 0 0 0.322978,0.421163 2.0345893,2.0345893 0 0 0 0.42168,0.323494 2.0345893,2.0345893 0 0 0 0.490409,0.203088 2.0345893,2.0345893 0 0 0 0.526583,0.06976 2.0345893,2.0345893 0 0 0 0.526583,-0.06976 2.0345893,2.0345893 0 0 0 0.490926,-0.203088 2.0345893,2.0345893 0 0 0 0.421163,-0.323494 2.0345893,2.0345893 0 0 0 0.323494,-0.421163 2.0345893,2.0345893 0 0 0 0.203088,-0.490926 2.0345893,2.0345893 0 0 0 0.06976,-0.526583 2.0345893,2.0345893 0 0 0 -0.0098,-0.198954 2.0345893,2.0345893 0 0 0 -0.02946,-0.197921 2.0345893,2.0345893 0 0 0 -0.04858,-0.19327 2.0345893,2.0345893 0 0 0 -0.06718,-0.188102 2.0345893,2.0345893 0 0 0 -0.08527,-0.180868 2.0345893,2.0345893 0 0 0 -0.102836,-0.171049 2.0345893,2.0345893 0 0 0 -0.118856,-0.160197 2.0345893,2.0345893 0 0 0 -0.134358,-0.148311 2.0345893,2.0345893 0 0 0 -0.147795,-0.133842 2.0345893,2.0345893 0 0 0 -0.160197,-0.118856 2.0345893,2.0345893 0 0 0 -0.171566,-0.102836 2.0345893,2.0345893 0 0 0 -0.18035,-0.08527 2.0345893,2.0345893 0 0 0 -0.188103,-0.06718 2.0345893,2.0345893 0 0 0 -0.193269,-0.04858 2.0345893,2.0345893 0 0 0 -0.197921,-0.02946 2.0345893,2.0345893 0 0 0 -0.199471,-0.0098 z"
       style="fill:#ffffff;fill-opacity:1;stroke-width:0.112007;stroke-linecap:square;stroke-linejoin:round;stroke-miterlimit:5.9;paint-order:markers fill stroke"
       id="path11" />
  </g>
  <g
     inkscape:groupmode="layer"
     id="layer4"
     inkscape:label="Layer 4"
     transform="matrix(1.4024151,0,0,1.4024151,-4.3868749,-1.970584)"
     style="display:none">
    <g
       sodipodi:type="inkscape:box3d"
       id="g2"
       style="display:inline;fill:none;stroke:#ffffff;stroke-width:3.77957;stroke-linecap:round;stroke-linejoin:round;stroke-miterlimit:5.9;stroke-dasharray:none;paint-order:markers fill stroke"
       inkscape:perspectiveID="#perspective1-6"
       inkscape:corner0="0.23946829 : -0.0073399948 : 0 : 1"
       inkscape:corner7="-0.0059144709 : -0.26570084 : 0.246067 : 1"
       inkscape:highlight-color="#a836aa">
      <path
         sodipodi:type="inkscape:box3dside"
         id="path2-3"
         style="fill:none;fill-opacity:1;fill-rule:evenodd;stroke:#ffffff;stroke-width:0.211667;stroke-linejoin:round;stroke-dasharray:none;stroke-opacity:1"
         inkscape:box3dsidetype="5"
         d="M 5.0139376,8.3625978 9.9612484,10.956623 14.946704,8.3491535 9.9993933,5.7551288 Z"
         points="9.9612484,10.956623 14.946704,8.3491535 9.9993933,5.7551288 5.0139376,8.3625978 "
         transform="translate(2.6433965,7.9301895)" />
      <path
         sodipodi:type="inkscape:box3dside"
         id="path4-5"
         style="fill:none;fill-opacity:1;fill-rule:evenodd;stroke:#ffffff;stroke-width:0.211667;stroke-linejoin:round;stroke-dasharray:none;stroke-opacity:1"
         inkscape:box3dsidetype="14"
         d="m 9.9612484,10.956623 0,4.839202 4.9854556,-2.607469 0,-4.8392025 z"
         points="9.9612484,15.795825 14.946704,13.188356 14.946704,8.3491535 9.9612484,10.956623 "
         transform="translate(-3.9890532,-2.1166667)" />
      <path
         sodipodi:type="inkscape:box3dside"
         id="path3-6"
         style="fill:none;fill-opacity:1;fill-rule:evenodd;stroke:#ffffff;stroke-width:0.211667;stroke-linejoin:round;stroke-dasharray:none;stroke-opacity:1"
         inkscape:box3dsidetype="3"
         d="m 5.0139376,8.3625978 4.9473108,2.5940252 0,4.839202 -4.9473108,-2.594024 z"
         points="9.9612484,10.956623 9.9612484,15.795825 5.0139376,13.201801 5.0139376,8.3625978 "
         transform="translate(9.5250003,-2.1166667)" />
    </g>
    <path
       style="fill:#ffffff;fill-opacity:1;stroke:#ffffff;stroke-width:0.264583;stroke-linecap:square;stroke-linejoin:round;stroke-miterlimit:5.9;stroke-dasharray:none;stroke-opacity:1;marker-end:url(#Triangle);paint-order:markers fill stroke"
       d="M 12.628288,11.712981 C 4.8636184,16.195915 4.880402,16.224986 4.880402,16.224986"
       id="path40" />
    <path
       style="fill:#ffffff;fill-opacity:1;stroke:#ffffff;stroke-width:0.264583;stroke-linecap:square;stroke-linejoin:round;stroke-miterlimit:5.9;stroke-dasharray:none;stroke-opacity:1;marker-end:url(#Triangle);paint-order:markers fill stroke"
       d="m 12.657183,11.713014 c 7.771407,4.482813 7.754609,4.511884 7.754609,4.511884"
       id="path41" />
    <path
       style="fill:#ffffff;fill-opacity:1;stroke:#ffffff;stroke-width:0.264583;stroke-linecap:square;stroke-linejoin:round;stroke-miterlimit:5.9;stroke-dasharray:none;stroke-opacity:1;marker-end:url(#Triangle);paint-order:markers fill stroke"
       d="m 12.632056,11.641918 c 3.2e-5,-8.9658118 0.0336,-8.9658128 0.0336,-8.9658128"
       id="path42" />
    <path
       style="fill:none;fill-opacity:0.00911853;stroke:#ffffff;stroke-width:0.336021;stroke-linecap:square;stroke-linejoin:round;stroke-miterlimit:5.9;stroke-dasharray:none;stroke-opacity:1;paint-order:markers fill stroke"
       id="path46"
       sodipodi:type="arc"
       sodipodi:cx="12.551172"
       sodipodi:cy="12.702385"
       sodipodi:rx="9.1416941"
       sodipodi:ry="6.9790602"
       sodipodi:start="6.1086524"
       sodipodi:end="3.3161256"
       sodipodi:open="true"
       sodipodi:arc-type="arc"
       d="m 21.553983,11.490484 a 9.1416941,6.9790602 0 0 1 -3.979368,7.042821 9.1416941,6.9790602 0 0 1 -10.0468859,0 9.1416941,6.9790602 0 0 1 -3.979368,-7.042821" />
    <path
       style="fill:none;fill-opacity:0.00911853;stroke:#ffffff;stroke-width:0.336021;stroke-linecap:square;stroke-linejoin:round;stroke-miterlimit:5.9;stroke-dasharray:none;stroke-opacity:1;paint-order:markers fill stroke"
       id="path47"
       sodipodi:type="arc"
       sodipodi:cx="-16.578997"
       sodipodi:cy="5.9180713"
       sodipodi:rx="9.1416941"
       sodipodi:ry="6.9790602"
       sodipodi:start="6.1086524"
       sodipodi:end="3.3161256"
       sodipodi:open="true"
       sodipodi:arc-type="arc"
       d="m -7.5761854,4.7061703 a 9.1416941,6.9790602 0 0 1 -3.9793686,7.0428207 9.1416941,6.9790602 0 0 1 -10.046886,0 9.1416941,6.9790602 0 0 1 -3.979368,-7.042821"
       transform="rotate(-120.01564)" />
    <path
       style="fill:none;fill-opacity:0.00911853;stroke:#ffffff;stroke-width:0.336021;stroke-linecap:square;stroke-linejoin:round;stroke-miterlimit:5.9;stroke-dasharray:none;stroke-opacity:1;paint-order:markers fill stroke"
       id="path48"
       sodipodi:type="arc"
       sodipodi:cx="3.3765335"
       sodipodi:cy="-16.040379"
       sodipodi:rx="9.1416941"
       sodipodi:ry="6.9790602"
       sodipodi:start="6.1086524"
       sodipodi:end="3.3161256"
       sodipodi:open="true"
       sodipodi:arc-type="arc"
       d="m 12.379345,-17.25228 a 9.1416941,6.9790602 0 0 1 -3.9793687,7.042821 9.1416941,6.9790602 0 0 1 -10.0468859,0 9.1416941,6.9790602 0 0 1 -3.9793681,-7.042821"
       transform="rotate(122.14781)" />
  </g>
  <g
     inkscape:groupmode="layer"
     id="layer3"
     inkscape:label="Layer 3"
     transform="matrix(2.9745036,0,0,1.8659433,-26.298929,-16.764783)"
     inkscape:export-filename="AddObject.svg"
     inkscape:export-xdpi="146.28572"
     inkscape:export-ydpi="146.28572"
     style="display:none">
    <g
       sodipodi:type="inkscape:box3d"
       id="g1"
       style="fill:none;stroke:#ffffff;stroke-width:3.77957;stroke-linecap:round;stroke-linejoin:round;stroke-miterlimit:5.9;stroke-dasharray:none;paint-order:markers fill stroke"
       inkscape:perspectiveID="#perspective1"
       inkscape:corner0="0.23946829 : -0.0073399948 : 0 : 1"
       inkscape:corner7="-0.0059144709 : -0.26570084 : 0.246067 : 1"
       inkscape:highlight-color="#a836aa">
      <path
         sodipodi:type="inkscape:box3dside"
         id="path6"
         style="display:none;fill:none;fill-opacity:1;fill-rule:evenodd;stroke:#ffffff;stroke-width:0.211667;stroke-linejoin:round;stroke-dasharray:none;stroke-opacity:1"
         inkscape:box3dsidetype="11"
         d="m 13.348638,10.692675 3.616143,3.022502 0,5.638535 -3.616143,-3.022502 z"
         points="16.964781,13.715177 16.964781,19.353712 13.348638,16.33121 13.348638,10.692675 " />
      <path
         sodipodi:type="inkscape:box3dside"
         id="path1"
         style="display:none;fill:none;fill-opacity:1;fill-rule:evenodd;stroke:#ffffff;stroke-width:0.211667;stroke-linejoin:round;stroke-dasharray:none;stroke-opacity:1"
         inkscape:box3dsidetype="6"
         d="m 9.7046134,13.730842 0,5.638535 3.6440246,-3.038167 v -5.638535 z"
         points="9.7046134,19.369377 13.348638,16.33121 13.348638,10.692675 9.7046134,13.730842 " />
      <path
         sodipodi:type="inkscape:box3dside"
         id="path5"
         style="display:none;fill:none;fill-opacity:1;fill-rule:evenodd;stroke:#ffffff;stroke-width:0.211667;stroke-linejoin:round;stroke-dasharray:none;stroke-opacity:1"
         inkscape:box3dsidetype="13"
         d="m 9.7046134,19.369377 3.6161426,3.022502 3.644025,-3.038167 -3.616143,-3.022502 z"
         points="13.320756,22.391879 16.964781,19.353712 13.348638,16.33121 9.7046134,19.369377 " />
      <path
         sodipodi:type="inkscape:box3dside"
         id="path2"
         style="fill:none;fill-opacity:1;fill-rule:evenodd;stroke:#ffffff;stroke-width:0.211667;stroke-linejoin:round;stroke-dasharray:none;stroke-opacity:1"
         inkscape:box3dsidetype="5"
         d="m 9.7046134,13.730842 3.6161426,3.022502 3.644025,-3.038167 -3.616143,-3.022502 z"
         points="13.320756,16.753344 16.964781,13.715177 13.348638,10.692675 9.7046134,13.730842 " />
      <path
         d="m 16.964779,13.715119 -3.644014,3.03809 v 5.638608 l 1.29534,-1.080087 a 1.0267819,1.6873519 0 0 1 -0.02415,-0.07422 1.0267819,1.6873519 0 0 1 -0.05837,-0.316548 1.0267819,1.6873519 0 0 1 -0.0198,-0.329011 1.0267819,1.6873519 0 0 1 0.0198,-0.329288 1.0267819,1.6873519 0 0 1 0.05837,-0.316549 1.0267819,1.6873519 0 0 1 0.09486,-0.291623 1.0267819,1.6873519 0 0 1 0.127693,-0.255621 1.0267819,1.6873519 0 0 1 0.155663,-0.209924 1.0267819,1.6873519 0 0 1 0.177553,-0.15592 1.0267819,1.6873519 0 0 1 0.192494,-0.0961 1.0267819,1.6873519 0 0 1 0.200313,-0.0324 1.0267819,1.6873519 0 0 1 0.07331,0.0044 1.0267819,1.6873519 0 0 1 0.07297,0.01274 1.0267819,1.6873519 0 0 1 0.0721,0.02133 1.0267819,1.6873519 0 0 1 0.07106,0.02991 1.0267819,1.6873519 0 0 1 0.06949,0.03794 1.0267819,1.6873519 0 0 1 0.06776,0.04625 1.0267819,1.6873519 0 0 1 0.0655,0.05373 1.0267819,1.6873519 0 0 1 0.06306,0.06148 1.0267819,1.6873519 0 0 1 0.06011,0.06868 1.0267819,1.6873519 0 0 1 0.05716,0.07561 1.0267819,1.6873519 0 0 1 0.05368,0.08225 1.0267819,1.6873519 0 0 1 0.04986,0.08807 1.0267819,1.6873519 0 0 1 0.04604,0.09388 1.0267819,1.6873519 0 0 1 0.0417,0.09887 1.0267819,1.6873519 0 0 1 0.03753,0.103577 1.0267819,1.6873519 0 0 1 0.0016,0.0053 l 0.521368,-0.434804 z"
         style="fill:none;fill-rule:evenodd;stroke:#ffffff;stroke-width:0.211667;stroke-opacity:1"
         id="path35" />
      <path
         sodipodi:type="inkscape:box3dside"
         id="path3"
         style="fill:none;fill-opacity:1;fill-rule:evenodd;stroke:#ffffff;stroke-width:0.211667;stroke-linejoin:round;stroke-dasharray:none;stroke-opacity:1"
         inkscape:box3dsidetype="3"
         d="m 9.7046134,13.730842 3.6161426,3.022502 0,5.638535 -3.6161426,-3.022502 z"
         points="13.320756,16.753344 13.320756,22.391879 9.7046134,19.369377 9.7046134,13.730842 " />
      <path
         sodipodi:type="inkscape:box3dside"
         id="path36"
         style="fill:none;fill-opacity:1;fill-rule:evenodd;stroke:#ffffff;stroke-width:0.211667;stroke-linejoin:round;stroke-dasharray:none;stroke-opacity:1"
         inkscape:box3dsidetype="5"
         d="m 9.7046134,13.730842 3.6161426,3.022502 3.644025,-3.038167 -3.616143,-3.022502 z"
         points="13.320756,16.753344 16.964781,13.715177 13.348638,10.692675 9.7046134,13.730842 "
         transform="translate(0,-0.14179602)" />
    </g>
    <rect
       style="fill:#ffffff;fill-opacity:1;stroke:#ffffff;stroke-width:0.170182;stroke-linecap:square;stroke-linejoin:round;stroke-miterlimit:5.9;stroke-dasharray:none;stroke-opacity:1;paint-order:markers fill stroke"
       id="rect39"
       width="1.5482577"
       height="0.18600702"
       x="14.772553"
       y="20.478966"
       rx="0.7054072" />
    <rect
       style="fill:#ffffff;fill-opacity:1;stroke:#ffffff;stroke-width:0.170182;stroke-linecap:square;stroke-linejoin:round;stroke-miterlimit:5.9;stroke-dasharray:none;stroke-opacity:1;paint-order:markers fill stroke"
       id="rect40"
       width="2.5443139"
       height="0.11318837"
       x="19.299814"
       y="-15.603275"
       rx="1.1592242"
       transform="rotate(90)" />
    <ellipse
       style="fill:none;fill-opacity:1;stroke:#ffffff;stroke-width:0.170197;stroke-linecap:round;stroke-linejoin:round;stroke-miterlimit:5.9;stroke-dasharray:none;stroke-opacity:1;paint-order:markers fill stroke"
       id="ellipse28"
       cx="15.540616"
       cy="20.591896"
       rx="1.0267819"
       ry="1.6873519" />
    <ellipse
       style="fill:none;fill-opacity:1;stroke:#ffffff;stroke-width:0.165942;stroke-linecap:round;stroke-linejoin:round;stroke-miterlimit:5.9;stroke-dasharray:none;stroke-opacity:1;paint-order:markers fill stroke"
       id="ellipse35"
       cx="15.540616"
       cy="20.591896"
       rx="1.0011123"
       ry="1.6451682" />
  </g>
  <g
     inkscape:groupmode="layer"
     id="layer2"
     inkscape:label="Layer 2"
     transform="matrix(-0.91524588,0,0,0.91524805,25.672522,0.59921642)"
     style="display:inline">
    <path
       style="fill:none;fill-opacity:1;stroke:#ffffff;stroke-width:1.85164;stroke-linecap:round;stroke-linejoin:round;stroke-miterlimit:5.9;stroke-dasharray:none;stroke-opacity:1;paint-order:markers fill stroke"
       d="m 11.916651,6.8921456 c 0,0 12.726237,0.4186257 12.307626,4.4374434 -0.377518,2.217263 -3.826059,4.079089 -21.0894847,4.341956"
       id="path20"
       sodipodi:nodetypes="ccc" />
    <path
       style="fill:none;fill-opacity:1;stroke:#ffffff;stroke-width:1.85164;stroke-linecap:round;stroke-linejoin:round;stroke-miterlimit:5.9;stroke-dasharray:none;stroke-opacity:1;paint-order:markers fill stroke"
       d="M 7.5043031,9.9814893 C 7.7964713,9.6480629 2.9580563,15.683302 2.9580563,15.683302 l 4.56303,5.023521 v 0"
       id="path21"
       sodipodi:nodetypes="cccc" />
  </g>
  <g
     inkscape:groupmode="layer"
     id="g23"
     inkscape:label="Layer 2"
     style="display:none"
     transform="matrix(0.91524588,0,0,0.91524805,0.7858133,0.59921642)">
    <path
       style="fill:none;fill-opacity:1;stroke:#ffffff;stroke-width:1.85164;stroke-linecap:round;stroke-linejoin:round;stroke-miterlimit:5.9;stroke-dasharray:none;stroke-opacity:1;paint-order:markers fill stroke"
       d="m 11.916651,6.8921456 c 0,0 12.726237,0.4186257 12.307626,4.4374434 -0.377518,2.217263 -3.826059,4.079089 -21.0894847,4.341956"
       id="path22"
       sodipodi:nodetypes="ccc" />
    <path
       style="fill:none;fill-opacity:1;stroke:#ffffff;stroke-width:1.85164;stroke-linecap:round;stroke-linejoin:round;stroke-miterlimit:5.9;stroke-dasharray:none;stroke-opacity:1;paint-order:markers fill stroke"
       d="m 7.5043031,9.9814893 c -0.16747,-0.12559 -4.5462468,5.7018127 -4.5462468,5.7018127 l 4.56303,5.023521 v 0"
       id="path23"
       sodipodi:nodetypes="cccc" />
  </g>
  <g
     inkscape:label="Layer 1"
     inkscape:groupmode="layer"
     id="layer1"
     style="display:none">
    <rect
       style="fill:#ffffff;fill-opacity:1;stroke-width:0;stroke-linejoin:round;stroke-miterlimit:5.9;paint-order:markers fill stroke"
       id="rect1"
       width="19.84375"
       x="3.4395945"
       y="10.583333"
       rx="2.6458333"
       height="5.2916665" />
    <rect
       style="fill:#ffffff;fill-opacity:1;stroke-width:0;stroke-linejoin:round;stroke-miterlimit:5.9;paint-order:markers fill stroke"
       id="rect2"
       width="14.552083"
       x="-9.010685"
       y="10.447918"
       rx="2.6458333"
       height="5.2916665"
       inkscape:transform-center-x="-2.2269403"
       inkscape:transform-center-y="-2.7521091"
       transform="rotate(-50.642519)" />
    <rect
       style="fill:#ffffff;fill-opacity:1;stroke-width:0;stroke-linejoin:round;stroke-miterlimit:5.9;paint-order:markers fill stroke"
       id="rect20"
       width="14.552083"
       x="11.445502"
       y="-6.3295913"
       rx="2.6458333"
       height="5.2916665"
       inkscape:transform-center-x="-2.2269403"
       inkscape:transform-center-y="2.7521089"
       transform="matrix(0.6341569,0.77320439,0.77320439,-0.6341569,0,0)" />
  </g>
</svg>
