<?xml version="1.0" encoding="UTF-8" standalone="no"?>
<!-- Created with Inkscape (http://www.inkscape.org/) -->

<svg
   width="65.035286"
   height="65.241249"
   viewBox="0 0 17.207253 17.261747"
   version="1.1"
   id="svg1"
   xmlns="http://www.w3.org/2000/svg"
   xmlns:svg="http://www.w3.org/2000/svg">
  <defs
     id="defs1">
    <linearGradient
       id="swatch31">
      <stop
         style="stop-color:#ffffff;stop-opacity:1;"
         offset="0"
         id="stop31" />
    </linearGradient>
  </defs>
  <g
     id="layer6"
     transform="translate(-3.2793859,-4.0888605)">
    <path
       d="m 16.130281,2.9285034 c -0.03742,0.00283 -0.07543,0.00853 -0.113688,0.017053 -0.03825,0.00853 -0.07672,0.020074 -0.115755,0.034106 -0.03903,0.014032 -0.07857,0.030783 -0.118339,0.050126 -0.03976,0.019343 -0.07996,0.04117 -0.120406,0.065629 -0.04045,0.024459 -0.08088,0.051751 -0.121956,0.081132 -0.04108,0.029381 -0.08236,0.060977 -0.124024,0.095085 -0.08332,0.068214 -0.167858,0.1455598 -0.253214,0.2315104 -0.08536,0.085951 -0.171901,0.1805416 -0.258899,0.2826701 -0.087,0.1021284 -0.174788,0.2119145 -0.263033,0.3286621 -0.08825,0.1167476 -0.177035,0.2401952 -0.266134,0.3700032 -0.0891,0.1298081 -0.178125,0.2659005 -0.267684,0.4072103 -0.08956,0.1413098 -0.179609,0.2879968 -0.269234,0.4392497 -0.08962,0.1512529 -0.178904,0.3070009 -0.268201,0.4666382 -0.0893,0.1596372 -0.178593,0.3234296 -0.267167,0.4898925 -0.08857,0.166463 -0.176609,0.3357326 -0.264067,0.5074626 -0.174915,0.3434599 -0.347126,0.6959228 -0.515214,1.0510986 -0.168087,0.3551758 -0.331785,0.713213 -0.489892,1.0676351 -0.158107,0.3544221 -0.310811,0.7052488 -0.455786,1.0464477 -0.144976,0.3411991 -0.282653,0.6725481 -0.411345,0.9880541 -0.128691,0.315506 -0.248344,0.615108 -0.357601,0.892452 -0.218513,0.554688 -0.394901,1.020499 -0.516764,1.347721 -0.121863,0.327222 -0.189136,0.515731 -0.189136,0.515731 0,0 -0.03672,-0.0083 -0.1033525,-0.02015 -0.06663,-0.01187 -0.1629513,-0.02714 -0.2831868,-0.04031 -0.1202355,-0.01316 -0.2639631,-0.02455 -0.4247803,-0.02842 -0.080409,-0.0019 -0.1651025,-0.0019 -0.2532145,5.17e-4 -0.088112,0.0024 -0.1796977,0.0075 -0.2738851,0.0155 -0.094187,0.008 -0.1912699,0.01915 -0.2899048,0.03411 -0.098635,0.01496 -0.1987858,0.03361 -0.30024,0.05684 -0.1014543,0.02323 -0.2043124,0.05088 -0.306958,0.08371 -0.1026457,0.03284 -0.2052657,0.07096 -0.3074748,0.114722 -0.1022091,0.04376 -0.203713,0.09282 -0.3038574,0.148828 -0.1001445,0.056 -0.1991373,0.118531 -0.2955892,0.188102 -0.048226,0.03479 -0.095629,0.07165 -0.142627,0.110071 -0.046997,0.03843 -0.093444,0.07869 -0.1390096,0.120923 -0.045566,0.04223 -0.090428,0.08609 -0.1343587,0.132292 -0.04393,0.0462 -0.0871,0.09487 -0.1291911,0.145211 -0.042091,0.05034 -0.081673,0.102002 -0.1188558,0.155029 -0.037183,0.05303 -0.071894,0.107351 -0.1043864,0.162781 -0.032492,0.05543 -0.062414,0.11195 -0.090434,0.169498 -0.028019,0.05755 -0.053751,0.115802 -0.077515,0.175183 -0.023764,0.05938 -0.045903,0.119937 -0.065629,0.180868 -0.019726,0.06093 -0.037321,0.12229 -0.053227,0.184485 -0.015906,0.0622 -0.030071,0.124927 -0.042375,0.188102 -0.012303,0.06318 -0.022604,0.126816 -0.031523,0.190686 -0.017837,0.12774 -0.029021,0.256693 -0.034623,0.385506 -0.0056,0.128813 -0.00592,0.257381 -0.00103,0.38499 0.00489,0.127608 0.014778,0.254145 0.028422,0.378271 0.013644,0.124127 0.03102,0.245952 0.051677,0.364319 0.020656,0.118367 0.044353,0.233318 0.07028,0.343648 0.025927,0.110331 0.054258,0.216243 0.083716,0.31626 0.029458,0.100017 0.06022,0.194211 0.091467,0.281637 0.031247,0.08742 0.063272,0.167737 0.094568,0.240295 0.031296,0.07256 0.061864,0.137341 0.091467,0.192753 0.029604,0.05541 0.058062,0.10147 0.084233,0.137459 0.026171,0.03599 0.050317,0.06168 0.071313,0.07597 0.010498,0.0071 0.02006,0.01163 0.028939,0.01292 0.00888,0.0013 0.01673,-3.24e-4 0.023771,-0.0052 0.028165,-0.01938 0.064904,-0.05483 0.1080037,-0.101286 0.0431,-0.04646 0.092667,-0.104 0.1477946,-0.166915 0.055128,-0.06291 0.1155866,-0.131238 0.179834,-0.199987 0.064247,-0.06875 0.1321121,-0.138096 0.2025716,-0.202055 0.03523,-0.03198 0.071249,-0.06268 0.107487,-0.09147 0.036238,-0.02879 0.072672,-0.05531 0.109554,-0.07958 0.036882,-0.02427 0.074458,-0.04617 0.1116211,-0.0646 0.037163,-0.01843 0.074024,-0.0337 0.1111044,-0.04496 0.03708,-0.01125 0.073953,-0.01843 0.1105875,-0.02119 0.036634,-0.0028 0.073213,-8.74e-4 0.1090373,0.0062 0.035825,0.0071 0.071285,0.01949 0.1059367,0.03772 0.034652,0.01823 0.068687,0.04215 0.1018026,0.07286 0.033115,0.03072 0.061485,0.0613 0.085783,0.09147 0.024298,0.03016 0.04425,0.06019 0.060462,0.08992 0.016211,0.02972 0.028353,0.05898 0.037207,0.08837 0.00885,0.02939 0.014309,0.05868 0.016536,0.08785 0.00223,0.02917 0.0016,0.05827 -0.00207,0.08733 -0.00367,0.02906 -0.010286,0.05827 -0.01912,0.08733 -0.00883,0.02906 -0.019802,0.05816 -0.033073,0.08733 -0.013271,0.02917 -0.029016,0.05845 -0.045992,0.08785 -0.033953,0.05879 -0.074461,0.117931 -0.1188558,0.178283 -0.044395,0.06035 -0.092598,0.121688 -0.1415934,0.184485 -0.048996,0.0628 -0.09849,0.127142 -0.1462443,0.19327 -0.047754,0.06613 -0.093687,0.134292 -0.1343588,0.204639 -0.010168,0.01759 -0.013765,0.03513 -0.010852,0.05323 0.00291,0.0181 0.012196,0.03648 0.027389,0.05478 0.015193,0.01829 0.036373,0.03661 0.063045,0.05478 0.026672,0.01816 0.059284,0.03603 0.096635,0.05374 0.037351,0.01771 0.079377,0.03525 0.1266072,0.05219 0.04723,0.01694 0.099238,0.03376 0.1555461,0.04961 0.1126156,0.0317 0.242932,0.06089 0.3870565,0.0863 0.1441244,0.02541 0.3020599,0.04702 0.471289,0.06356 0.1692291,0.01655 0.3495053,0.02796 0.5374349,0.03307 0.093965,0.0026 0.1898818,0.0034 0.287321,0.0026 0.097439,-7.84e-4 0.1965097,-0.0033 0.2966221,-0.0078 0.100113,-0.0044 0.201355,-0.01069 0.303341,-0.01912 0.101986,-0.0084 0.204932,-0.01879 0.307991,-0.03152 0.103059,-0.01273 0.206211,-0.02812 0.309542,-0.04547 0.103332,-0.01735 0.206739,-0.03713 0.309542,-0.05943 0.102803,-0.0223 0.204967,-0.04685 0.306441,-0.07441 0.101475,-0.02757 0.201929,-0.0578 0.301274,-0.09095 0.09935,-0.03316 0.197624,-0.06946 0.294039,-0.108521 0.09641,-0.03906 0.191019,-0.0808 0.283703,-0.12609 0.09268,-0.04529 0.183665,-0.09388 0.271818,-0.145728 0.08815,-0.05185 0.173493,-0.107164 0.256316,-0.165881 0.08282,-0.05872 0.163088,-0.121158 0.239778,-0.187069 0.07669,-0.06591 0.149867,-0.135348 0.219625,-0.208773 0.06976,-0.07343 0.135896,-0.150766 0.197921,-0.232027 0.06203,-0.08126 0.120141,-0.166381 0.173633,-0.255798 0.05349,-0.08942 0.102603,-0.183224 0.146761,-0.28112 0.04416,-0.09789 0.08328,-0.199747 0.117305,-0.306441 0.03402,-0.106695 0.06269,-0.218015 0.08578,-0.33383 0.02309,-0.115815 0.04032,-0.236479 0.05168,-0.361735 0.004,-0.04441 0.0061,-0.08852 0.0062,-0.132292 1.28e-4,-0.04377 -0.0016,-0.08713 -0.0052,-0.130224 -0.007,-0.08618 -0.02114,-0.170571 -0.04134,-0.253731 -0.0202,-0.08316 -0.04611,-0.165197 -0.07752,-0.244947 -0.03141,-0.07975 -0.06837,-0.157628 -0.109037,-0.233577 -0.04067,-0.07595 -0.08534,-0.149932 -0.133325,-0.221692 -0.04798,-0.07176 -0.0991,-0.141074 -0.152446,-0.208256 -0.05335,-0.06718 -0.108592,-0.132089 -0.165364,-0.194304 -0.05677,-0.06221 -0.114868,-0.121942 -0.173116,-0.1788 -0.05825,-0.05686 -0.116888,-0.110634 -0.174667,-0.161747 -0.05778,-0.05111 -0.114653,-0.0992 -0.170015,-0.144177 -0.110725,-0.08996 -0.214989,-0.167393 -0.304374,-0.230477 -0.08939,-0.06308 -0.164048,-0.112113 -0.216525,-0.145211 -0.05248,-0.0331 -0.08268,-0.05013 -0.08268,-0.05013 0,0 0.09872,-0.162406 0.267167,-0.449068 0.168453,-0.286662 0.406575,-0.697592 0.685747,-1.195276 0.139585,-0.248843 0.289527,-0.519771 0.445967,-0.807186 0.15644,-0.287416 0.319681,-0.591421 0.485759,-0.907955 0.166077,-0.316534 0.33483,-0.645138 0.503328,-0.981335 0.168498,-0.336198 0.336525,-0.6798889 0.500228,-1.0262949 0.163702,-0.346406 0.323217,-0.6956707 0.474906,-1.0428304 0.07584,-0.1735799 0.149687,-0.3468359 0.221175,-0.5188314 0.07149,-0.1719954 0.140476,-0.3428842 0.206706,-0.5121134 0.06623,-0.1692292 0.129583,-0.3364971 0.189653,-0.5017782 0.06007,-0.1652811 0.117008,-0.3287079 0.170015,-0.488859 0.05301,-0.1601511 0.102236,-0.3174498 0.147278,-0.4712891 0.04504,-0.1538393 0.08578,-0.3042729 0.121956,-0.4506185 0.03618,-0.1463455 0.06764,-0.2886605 0.09405,-0.4263305 0.02641,-0.13767 0.04783,-0.2706127 0.06356,-0.3984253 0.01574,-0.1278126 0.02581,-0.2501294 0.02997,-0.3669027 0.0042,-0.1167733 0.0026,-0.2277273 -0.0057,-0.3322794 -0.0042,-0.052276 -0.01012,-0.1029296 -0.01757,-0.1519287 -0.0074,-0.048999 -0.01654,-0.096536 -0.02739,-0.1421102 -0.01084,-0.045575 -0.02336,-0.089256 -0.03772,-0.1312582 -0.01436,-0.042002 -0.03059,-0.082124 -0.04858,-0.120406 -0.01798,-0.038282 -0.0377,-0.074623 -0.05943,-0.1090373 -0.02172,-0.034414 -0.04522,-0.06727 -0.0708,-0.097668 -0.02558,-0.030399 -0.05314,-0.058514 -0.08268,-0.084749 -0.02954,-0.026235 -0.06147,-0.050423 -0.09508,-0.072347 -0.03362,-0.021924 -0.06768,-0.040366 -0.10232,-0.055811 -0.03464,-0.015445 -0.0698,-0.028048 -0.10542,-0.037207 -0.03562,-0.00916 -0.07146,-0.015017 -0.108003,-0.018087 -0.03655,-0.00307 -0.07368,-0.00334 -0.111105,-5.167e-4 z M 8.7886107,14.36088 a 0.30396008,0.30396008 0 0 1 0.067696,0.0078 0.30396008,0.30396008 0 0 1 0.064595,0.02274 0.30396008,0.30396008 0 0 1 0.057361,0.03617 0.30396008,0.30396008 0 0 1 0.048059,0.04806 0.30396008,0.30396008 0 0 1 0.036174,0.05736 0.30396008,0.30396008 0 0 1 0.022738,0.06459 0.30396008,0.30396008 0 0 1 0.00775,0.0677 0.30396008,0.30396008 0 0 1 -0.040824,0.151928 0.30396008,0.30396008 0 0 1 -0.1111043,0.111105 0.30396008,0.30396008 0 0 1 -0.1524455,0.04082 A 0.30396008,0.30396008 0 0 1 8.6366812,14.928333 0.30396008,0.30396008 0 0 1 8.5255769,14.817228 0.30396008,0.30396008 0 0 1 8.4847529,14.6653 0.30396008,0.30396008 0 0 1 8.5255769,14.512854 0.30396008,0.30396008 0 0 1 8.6366812,14.40175 0.30396008,0.30396008 0 0 1 8.7886099,14.36093 Z m -1.4386718,1.025261 a 0.30396008,0.30396008 0 0 1 0.067696,0.0078 0.30396008,0.30396008 0 0 1 0.064596,0.02274 0.30396008,0.30396008 0 0 1 0.057361,0.03617 0.30396008,0.30396008 0 0 1 0.048059,0.04806 0.30396008,0.30396008 0 0 1 0.036174,0.05736 0.30396008,0.30396008 0 0 1 0.022738,0.0646 0.30396008,0.30396008 0 0 1 0.00775,0.0677 A 0.30396008,0.30396008 0 0 1 7.6134889,15.8425 0.30396008,0.30396008 0 0 1 7.5023845,15.953604 0.30396008,0.30396008 0 0 1 7.3499391,15.994424 0.30396008,0.30396008 0 0 1 7.1980104,15.953604 0.30396008,0.30396008 0 0 1 7.086906,15.8425 0.30396008,0.30396008 0 0 1 7.046082,15.690571 0.30396008,0.30396008 0 0 1 7.086906,15.538125 0.30396008,0.30396008 0 0 1 7.1980104,15.427021 0.30396008,0.30396008 0 0 1 7.3499391,15.386201 Z m 5.5836381,1.038179 a 0.30396008,0.30396008 0 0 1 0.0677,0.0078 0.30396008,0.30396008 0 0 1 0.06408,0.02222 0.30396008,0.30396008 0 0 1 0.05788,0.03617 0.30396008,0.30396008 0 0 1 0.04806,0.04806 0.30396008,0.30396008 0 0 1 0.03617,0.05788 0.30396008,0.30396008 0 0 1 0.02274,0.06408 0.30396008,0.30396008 0 0 1 0.0072,0.0677 0.30396008,0.30396008 0 0 1 -0.04031,0.151928 0.30396008,0.30396008 0 0 1 -0.111621,0.111105 0.30396008,0.30396008 0 0 1 -0.151929,0.04082 0.30396008,0.30396008 0 0 1 -0.151928,-0.04082 0.30396008,0.30396008 0 0 1 -0.111105,-0.111105 0.30396008,0.30396008 0 0 1 -0.04082,-0.151928 0.30396008,0.30396008 0 0 1 0.04082,-0.151929 0.30396008,0.30396008 0 0 1 0.111105,-0.111104 0.30396008,0.30396008 0 0 1 0.151928,-0.04082 z m -5.5919064,0.450619 a 0.30396008,0.30396008 0 0 1 0.067179,0.0078 0.30396008,0.30396008 0 0 1 0.064596,0.02222 0.30396008,0.30396008 0 0 1 0.057361,0.03617 0.30396008,0.30396008 0 0 1 0.048059,0.04857 0.30396008,0.30396008 0 0 1 0.03669,0.05736 0.30396008,0.30396008 0 0 1 0.022221,0.06408 0.30396008,0.30396008 0 0 1 0.00775,0.0677 0.30396008,0.30396008 0 0 1 -0.040824,0.151929 0.30396008,0.30396008 0 0 1 -0.1111043,0.111621 0.30396008,0.30396008 0 0 1 -0.1519288,0.04031 0.30396008,0.30396008 0 0 1 -0.1524454,-0.04031 0.30396008,0.30396008 0 0 1 -0.1111044,-0.111621 0.30396008,0.30396008 0 0 1 -0.040824,-0.151929 0.30396008,0.30396008 0 0 1 0.040824,-0.151929 0.30396008,0.30396008 0 0 1 0.1111044,-0.111104 0.30396008,0.30396008 0 0 1 0.1524454,-0.04082 z m 5.0792764,1.302246 a 0.30396008,0.30396008 0 0 1 0.0677,0.0078 0.30396008,0.30396008 0 0 1 0.06408,0.02222 0.30396008,0.30396008 0 0 1 0.05788,0.03617 0.30396008,0.30396008 0 0 1 0.04806,0.04806 0.30396008,0.30396008 0 0 1 0.03617,0.05788 0.30396008,0.30396008 0 0 1 0.02274,0.06408 0.30396008,0.30396008 0 0 1 0.0072,0.0677 0.30396008,0.30396008 0 0 1 -0.04031,0.151929 0.30396008,0.30396008 0 0 1 -0.111621,0.111104 0.30396008,0.30396008 0 0 1 -0.151929,0.04083 0.30396008,0.30396008 0 0 1 -0.151929,-0.04083 0.30396008,0.30396008 0 0 1 -0.111104,-0.111104 0.30396008,0.30396008 0 0 1 -0.04082,-0.151929 0.30396008,0.30396008 0 0 1 0.04082,-0.151928 0.30396008,0.30396008 0 0 1 0.111104,-0.111105 0.30396008,0.30396008 0 0 1 0.151929,-0.04082 z m -1.899109,0.650606 a 0.30396008,0.30396008 0 0 1 0.0677,0.0078 0.30396008,0.30396008 0 0 1 0.06408,0.02222 0.30396008,0.30396008 0 0 1 0.05788,0.03617 0.30396008,0.30396008 0 0 1 0.04806,0.04806 0.30396008,0.30396008 0 0 1 0.03617,0.05788 0.30396008,0.30396008 0 0 1 0.02274,0.06408 0.30396008,0.30396008 0 0 1 0.0072,0.0677 0.30396008,0.30396008 0 0 1 -0.04031,0.151928 0.30396008,0.30396008 0 0 1 -0.111621,0.111105 0.30396008,0.30396008 0 0 1 -0.151929,0.04082 0.30396008,0.30396008 0 0 1 -0.151928,-0.04082 0.30396008,0.30396008 0 0 1 -0.111105,-0.111105 0.30396008,0.30396008 0 0 1 -0.04082,-0.151928 0.30396008,0.30396008 0 0 1 0.04082,-0.151929 0.30396008,0.30396008 0 0 1 0.111105,-0.111105 0.30396008,0.30396008 0 0 1 0.151928,-0.04082 z"
       style="display:none;fill:#ffffff;stroke-width:0.336021;stroke-linecap:square;stroke-linejoin:round;stroke-miterlimit:5.9;paint-order:markers fill stroke"
       id="path17" />
    <path
       d="m 19.894393,4.0912231 c -0.04008,0.00308 -0.08151,0.00891 -0.124541,0.018087 -0.04303,0.00918 -0.08746,0.021623 -0.133325,0.03669 -0.09173,0.030135 -0.189141,0.071587 -0.291455,0.1240234 -0.102314,0.052436 -0.20951,0.115549 -0.321427,0.188619 -0.111918,0.07307 -0.228794,0.15601 -0.349333,0.2480469 -0.120539,0.092037 -0.244926,0.1934872 -0.373104,0.3028239 C 18.17303,5.11885 18.041236,5.2364605 17.9064,5.3614298 17.771565,5.486399 17.633499,5.6188533 17.492989,5.757788 17.352478,5.8967227 17.209795,6.0421874 17.064591,6.1934203 16.774184,6.4958861 16.47491,6.8212145 16.171623,7.1628702 c -0.303288,0.3416557 -0.611012,0.69961 -0.919324,1.0671183 -0.308313,0.3675083 -0.616944,0.7444557 -0.922425,1.1244792 -0.30548,0.3800234 -0.607478,0.7628473 -0.90227,1.1420493 -0.294792,0.379201 -0.582614,0.754786 -0.858862,1.119828 -0.253021,0.334349 -0.451496,0.609639 -0.682646,0.921391 0.04076,0.01766 0.08113,0.03159 0.121956,0.05013 0.157137,0.07135 0.314333,0.149294 0.470773,0.23151 0.15644,0.08222 0.312062,0.168766 0.465088,0.258383 0.153025,0.08962 0.303724,0.182407 0.450618,0.275952 0.146894,0.09354 0.289837,0.188152 0.427881,0.282153 0.09801,0.06674 0.189772,0.131927 0.282153,0.197404 0.156531,-0.176243 0.285981,-0.31555 0.448035,-0.500228 0.301324,-0.343391 0.610766,-0.700398 0.922424,-1.065051 0.311658,-0.364654 0.625781,-0.736955 0.936377,-1.112594 0.310596,-0.375638 0.617569,-0.754333 0.915707,-1.13068 C 17.625246,9.6483644 17.91427,9.274244 18.188554,8.9074665 18.462837,8.5406891 18.7226,8.1810783 18.961633,7.834147 19.08115,7.6606814 19.195164,7.490161 19.303731,7.3235839 c 0.108567,-0.1665771 0.211281,-0.3289047 0.307475,-0.4873088 0.09619,-0.158404 0.185805,-0.3125242 0.2682,-0.4614705 0.0824,-0.1489462 0.157621,-0.2927776 0.224793,-0.4309814 0.06717,-0.1382039 0.126725,-0.2706982 0.17725,-0.396875 0.05053,-0.1261768 0.09209,-0.2462861 0.12454,-0.3591512 0.03245,-0.1128652 0.05577,-0.2185077 0.06873,-0.3167766 0.0065,-0.049134 0.01003,-0.096349 0.01137,-0.1415934 0.0013,-0.045244 3.65e-4,-0.088514 -0.0036,-0.1297078 -0.004,-0.041194 -0.01067,-0.080323 -0.02015,-0.1173055 -0.0095,-0.036983 -0.02205,-0.071775 -0.03721,-0.1043864 -0.01516,-0.032611 -0.03273,-0.063388 -0.05374,-0.091467 -0.02101,-0.028079 -0.04531,-0.053612 -0.07235,-0.076998 -0.02704,-0.023386 -0.05582,-0.043489 -0.0863,-0.059945 -0.03048,-0.016456 -0.06283,-0.029539 -0.09663,-0.039274 -0.03381,-0.00973 -0.06893,-0.015899 -0.105937,-0.01912 -0.03701,-0.00322 -0.07568,-0.00308 -0.115755,0 z"
       style="fill:#ffffff;stroke-width:0.336021;stroke-linecap:square;stroke-linejoin:round;stroke-miterlimit:5.9;paint-order:markers fill stroke"
       id="path28" />
    <path
       d="m 13.724227,14.258044 c -0.05212,-0.04217 -0.100803,-0.08378 -0.15658,-0.126607 -0.106882,-0.08206 -0.220997,-0.165319 -0.341581,-0.248564 -0.120584,-0.08324 -0.247753,-0.166758 -0.382406,-0.249597 -0.134652,-0.08284 -0.276727,-0.165133 -0.425813,-0.24598 -0.149087,-0.08085 -0.305337,-0.159928 -0.469222,-0.237194 -0.124351,-0.05863 -0.257102,-0.11477 -0.390158,-0.170533 -0.153818,0.209259 -0.341592,0.45724 -0.48059,0.64854 -0.37167,0.511518 -0.65233,0.906649 -0.890385,1.242818 0.04286,0.0318 0.08601,0.05994 0.128674,0.09302 0.136385,0.105742 0.271433,0.217673 0.404627,0.33383 0.133193,0.116157 0.264579,0.236585 0.39274,0.359151 0.128162,0.122567 0.253367,0.2471 0.374655,0.372071 0.108839,0.112145 0.213328,0.224359 0.315226,0.33538 0.284859,-0.304203 0.638333,-0.683649 1.083138,-1.170988 0.247839,-0.27154 0.556371,-0.62155 0.837675,-0.935344 z"
       style="fill:#ffffff;stroke-width:0.336021;stroke-linecap:square;stroke-linejoin:round;stroke-miterlimit:5.9;paint-order:markers fill stroke"
       id="path27" />
    <path
       d="m 11.425659,16.766418 c -0.07114,-0.08586 -0.1434,-0.172336 -0.223242,-0.260966 -0.09807,-0.108867 -0.202857,-0.21952 -0.31471,-0.331246 -0.111853,-0.111725 -0.230728,-0.22484 -0.357084,-0.337964 -0.126356,-0.113123 -0.260461,-0.226452 -0.402042,-0.339514 -0.07912,-0.06318 -0.1665803,-0.125811 -0.2506311,-0.188619 -0.084158,0.120494 -0.2196248,0.313676 -0.2196248,0.313676 0,0 -0.030201,-0.03955 -0.088884,-0.09973 -0.029341,-0.03009 -0.065845,-0.06528 -0.1090373,-0.103353 -0.043192,-0.03808 -0.093366,-0.07906 -0.1498616,-0.120406 -0.056496,-0.04135 -0.1193655,-0.08307 -0.188619,-0.12299 -0.069253,-0.03992 -0.1448784,-0.07785 -0.2263428,-0.111621 -0.081464,-0.03377 -0.1688707,-0.06338 -0.2619995,-0.0863 -0.093129,-0.02292 -0.1918594,-0.03915 -0.2961059,-0.04651 -0.052123,-0.0037 -0.1053967,-0.0052 -0.160197,-0.0041 -0.0548,0.0011 -0.1110563,0.0049 -0.1684651,0.01137 -0.057409,0.0065 -0.1162675,0.0155 -0.1762167,0.02791 -0.059949,0.01241 -0.1210301,0.02808 -0.1834513,0.04703 -0.062421,0.01895 -0.1258612,0.0411 -0.190686,0.06718 -0.064825,0.02608 -0.1307606,0.05612 -0.1979208,0.08992 -0.06716,0.03379 -0.1357282,0.07159 -0.2051554,0.113688 -0.069427,0.0421 -0.1397307,0.08853 -0.2113566,0.139527 -0.071626,0.05099 -0.1443182,0.10644 -0.2180745,0.166915 -0.073756,0.06048 -0.1489742,0.125824 -0.2247925,0.19637 -0.075818,0.07055 -0.1526648,0.14617 -0.2304769,0.227376 -0.077812,0.08121 -0.1564238,0.167995 -0.2361613,0.26045 -0.079738,0.09246 -0.1602511,0.19078 -0.2418457,0.295072 -0.081595,0.104292 -0.1641467,0.214528 -0.2475301,0.331246 -0.083383,0.116718 -0.167594,0.239754 -0.2526977,0.369486 -0.085104,0.129733 -0.1711095,0.266459 -0.2578654,0.409795 -0.1512786,0.249938 -0.2965921,0.482335 -0.4356324,0.699182 -0.1390403,0.216846 -0.2717689,0.418014 -0.398942,0.604097 -0.1271731,0.186084 -0.2486418,0.357564 -0.3643189,0.515214 -0.115677,0.157651 -0.2256602,0.301502 -0.3302124,0.433049 -0.044328,0.05577 -0.083714,0.100549 -0.1260904,0.151928 0.1139938,-0.02362 0.2294823,-0.04821 0.3343465,-0.06563 0.1505592,-0.02501 0.291575,-0.04393 0.4242635,-0.05736 0.1326885,-0.01343 0.2571669,-0.02154 0.3731038,-0.0248 0.1159369,-0.0033 0.223707,-0.0019 0.3240112,0.0036 0.1003043,0.0055 0.1927452,0.01509 0.278536,0.02791 0.085791,0.01281 0.1647985,0.02882 0.2371948,0.04754 0.072396,0.01873 0.1383166,0.04034 0.1984375,0.06356 0.060121,0.02323 0.114333,0.0481 0.1632975,0.07441 0.048965,0.02631 0.092848,0.05419 0.1317749,0.08217 0.038927,0.02798 0.072827,0.056 0.1028361,0.08423 0.030009,0.02823 0.055822,0.05665 0.078032,0.08372 0.02221,0.02706 0.040797,0.05303 0.056327,0.07751 0.03106,0.04897 0.049925,0.09129 0.060978,0.12144 0.011054,0.03015 0.014469,0.04806 0.014469,0.04806 0,0 0.00886,0.0258 0.027905,0.06718 0.019047,0.04138 0.048292,0.09853 0.0894,0.161748 0.020554,0.03161 0.044162,0.06478 0.070797,0.09819 0.026635,0.0334 0.056308,0.06699 0.0894,0.09973 0.033092,0.03275 0.069628,0.0644 0.109554,0.09405 0.039926,0.02965 0.083087,0.05701 0.1302246,0.08113 0.047138,0.02412 0.098237,0.04484 0.1529623,0.06098 0.054725,0.01614 0.1130097,0.02788 0.1756998,0.03359 0.06269,0.0057 0.1294729,0.0056 0.2005046,-0.0015 0.071032,-0.0072 0.1465926,-0.02145 0.2263428,-0.04393 0.07975,-0.02247 0.1638524,-0.0533 0.2526977,-0.09353 0.088845,-0.04023 0.1822857,-0.08995 0.280603,-0.150379 0.098317,-0.06043 0.2013756,-0.131384 0.3095419,-0.214457 0.1081662,-0.08307 0.221639,-0.178127 0.3400309,-0.286287 0.059196,-0.05408 0.1189843,-0.104376 0.1793172,-0.151412 0.060333,-0.04704 0.1211407,-0.09092 0.1824178,-0.131258 0.061277,-0.04034 0.122973,-0.07712 0.1850016,-0.111105 0.062029,-0.03398 0.1244813,-0.06504 0.1870687,-0.09302 0.062587,-0.02798 0.1251487,-0.05313 0.1881022,-0.07545 0.062954,-0.02231 0.1260088,-0.04191 0.1891358,-0.05891 0.1262539,-0.03399 0.2529968,-0.05755 0.3787884,-0.07235 0.125792,-0.0148 0.250867,-0.02075 0.374654,-0.01912 0.123788,0.0016 0.246144,0.01105 0.366386,0.02635 0.120242,0.0153 0.238312,0.03632 0.353467,0.06253 0.115155,0.02621 0.227371,0.05712 0.335897,0.09147 0.0059,0.0019 0.01116,0.0043 0.01705,0.0062 0.02004,-0.03137 0.04244,-0.06239 0.06046,-0.09405 0.03682,-0.0647 0.06936,-0.129746 0.09819,-0.195337 0.02883,-0.06559 0.05347,-0.131317 0.07493,-0.197404 0.02146,-0.06609 0.03955,-0.132251 0.05426,-0.198438 0.01471,-0.06619 0.02655,-0.132549 0.03514,-0.198437 0.0086,-0.06589 0.01396,-0.131696 0.01705,-0.196888 0.0062,-0.130383 0.0022,-0.258741 -0.0098,-0.383955 -0.01206,-0.125215 -0.03205,-0.246937 -0.05736,-0.363802 -0.02531,-0.116866 -0.05635,-0.22901 -0.08992,-0.334347 -0.03357,-0.105337 -0.06961,-0.203927 -0.106454,-0.294556 -0.03684,-0.09063 -0.07443,-0.173239 -0.109554,-0.245979 -0.03512,-0.07274 -0.06771,-0.135912 -0.09612,-0.187586 -0.05681,-0.103347 -0.0956,-0.16123 -0.0956,-0.16123 0,0 0.140402,-0.148638 0.200505,-0.211874 z"
       style="fill:#ffffff;stroke-width:0.336021;stroke-linecap:square;stroke-linejoin:round;stroke-miterlimit:5.9;paint-order:markers fill stroke"
       id="path26" />
  </g>
</svg>
