<?xml version="1.0" encoding="UTF-8" standalone="no"?>
<!-- Created with Inkscape (http://www.inkscape.org/) -->

<svg
   width="83.863281"
   height="36.546902"
   viewBox="0 0 22.188826 9.669701"
   version="1.1"
   id="svg1"
   xmlns="http://www.w3.org/2000/svg"
   xmlns:svg="http://www.w3.org/2000/svg">
  <defs
     id="defs1">
    <linearGradient
       id="swatch31">
      <stop
         style="stop-color:#ffffff;stop-opacity:1;"
         offset="0"
         id="stop31" />
    </linearGradient>
  </defs>
  <g
     id="layer5"
     transform="translate(-1.8520833,-7.9374972)">
    <path
       d="M 12.940812,7.9374999 A 11.295478,5.8932929 0 0 0 11.466483,7.9881428 11.295478,5.8932929 0 0 0 10.017476,8.1385212 11.295478,5.8932929 0 0 0 8.6180785,8.3860513 11.295478,5.8932929 0 0 0 7.2930948,8.7271158 11.295478,5.8932929 0 0 0 6.064746,9.1555134 11.295478,5.8932929 0 0 0 4.9537027,9.6634927 11.295478,5.8932929 0 0 0 3.979602,10.243302 11.295478,5.8932929 0 0 0 3.1584635,10.88409 11.295478,5.8932929 0 0 0 2.5052734,11.575521 11.295478,5.8932929 0 0 0 2.030367,12.305709 a 11.295478,5.8932929 0 0 0 -0.1782837,0.467155 11.295478,5.8932929 0 0 0 0.1782837,0.466638 11.295478,5.8932929 0 0 0 0.4749064,0.729671 11.295478,5.8932929 0 0 0 0.6531901,0.691431 11.295478,5.8932929 0 0 0 0.3906738,0.327628 11.295478,5.8932929 0 0 0 0.4304647,0.313676 11.295478,5.8932929 0 0 0 0.9741007,0.579293 11.295478,5.8932929 0 0 0 1.1110433,0.508496 11.295478,5.8932929 0 0 0 1.2283488,0.428398 11.295478,5.8932929 0 0 0 1.3249837,0.340547 11.295478,5.8932929 0 0 0 1.3993975,0.248047 11.295478,5.8932929 0 0 0 1.449007,0.150379 11.295478,5.8932929 0 0 0 1.474329,0.05013 11.295478,5.8932929 0 0 0 1.474329,-0.05013 11.295478,5.8932929 0 0 0 1.449007,-0.150379 11.295478,5.8932929 0 0 0 1.399398,-0.248047 11.295478,5.8932929 0 0 0 1.324983,-0.340547 11.295478,5.8932929 0 0 0 1.228349,-0.428398 11.295478,5.8932929 0 0 0 1.111043,-0.508496 11.295478,5.8932929 0 0 0 0.974101,-0.579293 11.295478,5.8932929 0 0 0 0.430465,-0.313676 11.295478,5.8932929 0 0 0 0.390674,-0.327628 11.295478,5.8932929 0 0 0 0.65319,-0.691431 11.295478,5.8932929 0 0 0 0.474906,-0.729671 11.295478,5.8932929 0 0 0 0.189653,-0.496611 11.295478,5.8932929 0 0 0 -0.08785,-0.223242 11.295478,5.8932929 0 0 0 -0.124024,-0.256832 11.295478,5.8932929 0 0 0 -0.145727,-0.253214 11.295478,5.8932929 0 0 0 -0.167432,-0.249597 11.295478,5.8932929 0 0 0 -0.188619,-0.245464 11.295478,5.8932929 0 0 0 -0.209806,-0.240812 11.295478,5.8932929 0 0 0 -0.22996,-0.235644 11.295478,5.8932929 0 0 0 -0.250114,-0.22996 A 11.295478,5.8932929 0 0 0 22.367627,10.584367 11.295478,5.8932929 0 0 0 22.078755,10.366809 11.295478,5.8932929 0 0 0 21.771797,10.156486 11.295478,5.8932929 0 0 0 21.447269,9.9533975 11.295478,5.8932929 0 0 0 21.105171,9.7580606 11.295478,5.8932929 0 0 0 20.746537,9.5709919 11.295478,5.8932929 0 0 0 20.3724,9.3927082 11.295478,5.8932929 0 0 0 19.983276,9.2232095 11.295478,5.8932929 0 0 0 19.5802,9.0630126 11.295478,5.8932929 0 0 0 19.163171,8.9126342 11.295478,5.8932929 0 0 0 18.734257,8.7715575 11.295478,5.8932929 0 0 0 18.293457,8.6413329 11.295478,5.8932929 0 0 0 17.841805,8.5209268 11.295478,5.8932929 0 0 0 17.380334,8.4118895 11.295478,5.8932929 0 0 0 16.909562,8.3131876 11.295478,5.8932929 0 0 0 16.431038,8.2258544 11.295478,5.8932929 0 0 0 15.945797,8.14989 11.295478,5.8932929 0 0 0 15.454354,8.0852945 11.295478,5.8932929 0 0 0 14.957743,8.0320678 11.295478,5.8932929 0 0 0 14.456999,7.9907266 11.295478,5.8932929 0 0 0 13.953153,7.9612711 11.295478,5.8932929 0 0 0 13.447758,7.9431843 11.295478,5.8932929 0 0 0 12.940812,7.9374999 Z m -0.242879,1.3229166 a 3.4377544,3.4377544 0 0 1 0.269751,0.010852 3.4377544,3.4377544 0 0 1 0.2682,0.031523 3.4377544,3.4377544 0 0 1 0.264584,0.05271 3.4377544,3.4377544 0 0 1 0.259932,0.07338 3.4377544,3.4377544 0 0 1 0.253215,0.093018 3.4377544,3.4377544 0 0 1 0.245463,0.1131714 3.4377544,3.4377544 0 0 1 0.235128,0.1317749 3.4377544,3.4377544 0 0 1 0.224792,0.1503784 3.4377544,3.4377544 0 0 1 0.211873,0.1669148 3.4377544,3.4377544 0 0 1 0.197921,0.182934 3.4377544,3.4377544 0 0 1 0.183451,0.198438 3.4377544,3.4377544 0 0 1 0.166915,0.211873 3.4377544,3.4377544 0 0 1 0.150379,0.224793 3.4377544,3.4377544 0 0 1 0.131775,0.235128 3.4377544,3.4377544 0 0 1 0.113171,0.245463 3.4377544,3.4377544 0 0 1 0.09302,0.253214 3.4377544,3.4377544 0 0 1 0.07338,0.259416 3.4377544,3.4377544 0 0 1 0.05271,0.2651 3.4377544,3.4377544 0 0 1 0.03152,0.268201 3.4377544,3.4377544 0 0 1 0.01085,0.269234 3.4377544,3.4377544 0 0 1 -0.0863,0.765328 3.4377544,3.4377544 0 0 1 -0.254248,0.72657 3.4377544,3.4377544 0 0 1 -0.409277,0.65164 3.4377544,3.4377544 0 0 1 -0.54467,0.54467 3.4377544,3.4377544 0 0 1 -0.65164,0.409277 3.4377544,3.4377544 0 0 1 -0.72657,0.254248 3.4377544,3.4377544 0 0 1 -0.765328,0.0863 3.4377544,3.4377544 0 0 1 -0.764811,-0.0863 3.4377544,3.4377544 0 0 1 -0.726571,-0.254248 3.4377544,3.4377544 0 0 1 -0.65164,-0.409277 3.4377544,3.4377544 0 0 1 -0.544669,-0.54467 3.4377544,3.4377544 0 0 1 -0.4092778,-0.65164 3.4377544,3.4377544 0 0 1 -0.254248,-0.72657 3.4377544,3.4377544 0 0 1 -0.0863,-0.765328 3.4377544,3.4377544 0 0 1 0.0863,-0.764811 3.4377544,3.4377544 0 0 1 0.254248,-0.726571 3.4377544,3.4377544 0 0 1 0.4092778,-0.65164 3.4377544,3.4377544 0 0 1 0.544669,-0.544669 3.4377544,3.4377544 0 0 1 0.65164,-0.4092776 3.4377544,3.4377544 0 0 1 0.726571,-0.254248 3.4377544,3.4377544 0 0 1 0.764811,-0.0863 z"
       style="fill:#ffffff;fill-opacity:1;stroke-width:0.336021;stroke-linecap:square;stroke-linejoin:round;stroke-miterlimit:5.9;paint-order:markers fill stroke"
       id="path10" />
    <path
       d="m 12.697933,10.663432 a 2.0345893,2.0345893 0 0 0 -0.526583,0.06925 2.0345893,2.0345893 0 0 0 -0.490409,0.203605 2.0345893,2.0345893 0 0 0 -0.42168,0.322978 2.0345893,2.0345893 0 0 0 -0.322978,0.42168 2.0345893,2.0345893 0 0 0 -0.203605,0.490409 2.0345893,2.0345893 0 0 0 -0.06925,0.526583 2.0345893,2.0345893 0 0 0 0.06925,0.526583 2.0345893,2.0345893 0 0 0 0.203605,0.490926 2.0345893,2.0345893 0 0 0 0.322978,0.421163 2.0345893,2.0345893 0 0 0 0.42168,0.323494 2.0345893,2.0345893 0 0 0 0.490409,0.203088 2.0345893,2.0345893 0 0 0 0.526583,0.06976 2.0345893,2.0345893 0 0 0 0.526583,-0.06976 2.0345893,2.0345893 0 0 0 0.490926,-0.203088 2.0345893,2.0345893 0 0 0 0.421163,-0.323494 2.0345893,2.0345893 0 0 0 0.323494,-0.421163 2.0345893,2.0345893 0 0 0 0.203088,-0.490926 2.0345893,2.0345893 0 0 0 0.06976,-0.526583 2.0345893,2.0345893 0 0 0 -0.0098,-0.198954 2.0345893,2.0345893 0 0 0 -0.02946,-0.197921 2.0345893,2.0345893 0 0 0 -0.04858,-0.19327 2.0345893,2.0345893 0 0 0 -0.06718,-0.188102 2.0345893,2.0345893 0 0 0 -0.08527,-0.180868 2.0345893,2.0345893 0 0 0 -0.102836,-0.171049 2.0345893,2.0345893 0 0 0 -0.118856,-0.160197 2.0345893,2.0345893 0 0 0 -0.134358,-0.148311 2.0345893,2.0345893 0 0 0 -0.147795,-0.133842 2.0345893,2.0345893 0 0 0 -0.160197,-0.118856 2.0345893,2.0345893 0 0 0 -0.171566,-0.102836 2.0345893,2.0345893 0 0 0 -0.18035,-0.08527 2.0345893,2.0345893 0 0 0 -0.188103,-0.06718 2.0345893,2.0345893 0 0 0 -0.193269,-0.04858 2.0345893,2.0345893 0 0 0 -0.197921,-0.02946 2.0345893,2.0345893 0 0 0 -0.199471,-0.0098 z"
       style="fill:#ffffff;fill-opacity:1;stroke-width:0.112007;stroke-linecap:square;stroke-linejoin:round;stroke-miterlimit:5.9;paint-order:markers fill stroke"
       id="path11" />
  </g>
</svg>
